<svg width="22" height="22" viewBox="0 0 22 22" fill="none" xmlns="http://www.w3.org/2000/svg">
<circle cx="11" cy="11" r="11" fill="white"/>
<circle cx="11" cy="11" r="9" fill="#FF7042"/>
<path d="M9.0877 13.7748L15.8939 6.96855C16.0073 6.85605 16.1419 6.7998 16.2977 6.7998C16.4535 6.7998 16.5877 6.85639 16.7002 6.96955C16.8127 7.0827 16.8689 7.21707 16.8689 7.37267C16.8689 7.52826 16.8127 7.6623 16.7002 7.7748L9.48145 14.9936C9.36895 15.1061 9.2377 15.1623 9.0877 15.1623C8.9377 15.1623 8.80645 15.1061 8.69395 14.9936L5.28145 11.5811C5.16895 11.4677 5.11583 11.3331 5.12208 11.1773C5.12833 11.0215 5.18803 10.8873 5.30119 10.7748C5.41434 10.6623 5.54872 10.6061 5.70432 10.6061C5.85991 10.6061 5.99395 10.6623 6.10645 10.7748L9.0877 13.7748Z" fill="white"/>
</svg>
