<svg width="25" height="24" viewBox="0 0 25 24" fill="none" xmlns="http://www.w3.org/2000/svg">
<mask id="path-1-inside-1_372_948" fill="white">
<path d="M15.5801 20.8251L9.36001 18.6751L4.77814 20.4501C4.48804 20.6001 4.20221 20.5918 3.92064 20.4251C3.63907 20.2584 3.49829 20.0084 3.49829 19.6751V5.7251C3.49829 5.50843 3.56228 5.31676 3.69027 5.1501C3.81825 4.98343 3.98463 4.85843 4.18941 4.7751L8.84807 3.1751C9.01871 3.1251 9.18936 3.1001 9.36001 3.1001C9.53065 3.1001 9.7013 3.1251 9.87195 3.1751L16.092 5.3001L20.6483 3.5251C20.9384 3.39176 21.2242 3.40426 21.5058 3.5626C21.7874 3.72093 21.9281 3.96676 21.9281 4.3001V18.4251C21.9281 18.6084 21.8641 18.7668 21.7362 18.9001C21.6082 19.0334 21.4503 19.1334 21.2626 19.2001L16.604 20.8251C16.4333 20.8751 16.2627 20.9001 16.092 20.9001C15.9214 20.9001 15.7507 20.8751 15.5801 20.8251ZM15.2217 19.1251V6.5001L10.2047 4.8501V17.4751L15.2217 19.1251ZM16.7575 19.1251L20.3923 17.9501V5.1501L16.7575 6.5001V19.1251ZM5.03411 18.8251L8.66889 17.4751V4.8501L5.03411 6.0251V18.8251Z"/>
</mask>
<path d="M15.5801 20.8251L9.36001 18.6751L4.77814 20.4501C4.48804 20.6001 4.20221 20.5918 3.92064 20.4251C3.63907 20.2584 3.49829 20.0084 3.49829 19.6751V5.7251C3.49829 5.50843 3.56228 5.31676 3.69027 5.1501C3.81825 4.98343 3.98463 4.85843 4.18941 4.7751L8.84807 3.1751C9.01871 3.1251 9.18936 3.1001 9.36001 3.1001C9.53065 3.1001 9.7013 3.1251 9.87195 3.1751L16.092 5.3001L20.6483 3.5251C20.9384 3.39176 21.2242 3.40426 21.5058 3.5626C21.7874 3.72093 21.9281 3.96676 21.9281 4.3001V18.4251C21.9281 18.6084 21.8641 18.7668 21.7362 18.9001C21.6082 19.0334 21.4503 19.1334 21.2626 19.2001L16.604 20.8251C16.4333 20.8751 16.2627 20.9001 16.092 20.9001C15.9214 20.9001 15.7507 20.8751 15.5801 20.8251ZM15.2217 19.1251V6.5001L10.2047 4.8501V17.4751L15.2217 19.1251ZM16.7575 19.1251L20.3923 17.9501V5.1501L16.7575 6.5001V19.1251ZM5.03411 18.8251L8.66889 17.4751V4.8501L5.03411 6.0251V18.8251Z" fill="#D9D9D9"/>
<path d="M15.5801 20.8251L14.9267 22.7154L14.9719 22.731L15.0177 22.7444L15.5801 20.8251ZM9.36001 18.6751L10.0134 16.7848L9.32082 16.5454L8.63753 16.8102L9.36001 18.6751ZM4.77814 20.4501L4.05567 18.5852L3.95523 18.6241L3.85954 18.6735L4.77814 20.4501ZM4.18941 4.7751L3.53976 2.88355L3.48711 2.90163L3.43555 2.92262L4.18941 4.7751ZM8.84807 3.1751L8.2857 1.25579L8.24174 1.26867L8.19842 1.28355L8.84807 3.1751ZM9.87195 3.1751L10.5185 1.2825L10.4767 1.26821L10.4343 1.25579L9.87195 3.1751ZM16.092 5.3001L15.4454 7.1927L16.137 7.42897L16.818 7.16368L16.092 5.3001ZM20.6483 3.5251L21.3743 5.38868L21.4296 5.36713L21.4835 5.34235L20.6483 3.5251ZM21.2626 19.2001L21.9213 21.0885L21.932 21.0848L21.2626 19.2001ZM16.604 20.8251L17.1663 22.7444L17.2149 22.7302L17.2627 22.7135L16.604 20.8251ZM15.2217 19.1251L14.5969 21.025L17.2217 21.8882V19.1251H15.2217ZM15.2217 6.5001H17.2217V5.05247L15.8466 4.60021L15.2217 6.5001ZM10.2047 4.8501L10.8295 2.95021L8.20471 2.08695V4.8501H10.2047ZM10.2047 17.4751H8.20471V18.9227L9.57987 19.375L10.2047 17.4751ZM16.7575 19.1251H14.7575V21.8735L17.3727 21.0281L16.7575 19.1251ZM20.3923 17.9501L21.0075 19.8531L22.3923 19.4055V17.9501H20.3923ZM20.3923 5.1501H22.3923V2.27378L19.696 3.27524L20.3923 5.1501ZM16.7575 6.5001L16.0612 4.62524L14.7575 5.10943V6.5001H16.7575ZM5.03411 18.8251H3.03411V21.7014L5.73046 20.7L5.03411 18.8251ZM8.66889 17.4751L9.36523 19.35L10.6689 18.8658V17.4751H8.66889ZM8.66889 4.8501H10.6689V2.10166L8.0537 2.94706L8.66889 4.8501ZM5.03411 6.0251L4.41892 4.12206L3.03411 4.56973V6.0251H5.03411ZM16.2335 18.9348L10.0134 16.7848L8.70663 20.5654L14.9267 22.7154L16.2335 18.9348ZM8.63753 16.8102L4.05567 18.5852L5.50062 22.315L10.0825 20.54L8.63753 16.8102ZM3.85954 18.6735C3.97259 18.6151 4.16248 18.5501 4.40448 18.5572C4.64629 18.5642 4.83127 18.64 4.9394 18.704L2.90189 22.1462C3.77518 22.6631 4.79302 22.6939 5.69674 22.2267L3.85954 18.6735ZM4.9394 18.704C5.05754 18.7739 5.22171 18.9095 5.34656 19.1312C5.47041 19.3512 5.49829 19.5541 5.49829 19.6751H1.49829C1.49829 20.6989 1.99818 21.6113 2.90189 22.1462L4.9394 18.704ZM5.49829 19.6751V5.7251H1.49829V19.6751H5.49829ZM5.49829 5.7251C5.49829 5.81648 5.48429 5.92958 5.44334 6.05223C5.40216 6.17557 5.34244 6.28237 5.27653 6.3682L2.10401 3.93199C1.69888 4.45957 1.49829 5.08266 1.49829 5.7251H5.49829ZM5.27653 6.3682C5.23116 6.42728 5.17559 6.48286 5.11236 6.53036C5.04963 6.57749 4.99041 6.6084 4.94328 6.62758L3.43555 2.92262C2.91975 3.13252 2.45966 3.46885 2.10401 3.93199L5.27653 6.3682ZM4.83906 6.66665L9.49771 5.06665L8.19842 1.28355L3.53976 2.88355L4.83906 6.66665ZM9.41043 5.09441C9.40919 5.09477 9.40352 5.09632 9.39395 5.09772C9.3843 5.09914 9.37274 5.1001 9.36001 5.1001V1.1001C8.99115 1.1001 8.63129 1.15453 8.2857 1.25579L9.41043 5.09441ZM9.36001 5.1001C9.34728 5.1001 9.33572 5.09914 9.32607 5.09772C9.31649 5.09632 9.31082 5.09477 9.30958 5.09441L10.4343 1.25579C10.0887 1.15453 9.72887 1.1001 9.36001 1.1001V5.1001ZM9.22537 5.0677L15.4454 7.1927L16.7386 3.4075L10.5185 1.2825L9.22537 5.0677ZM16.818 7.16368L21.3743 5.38868L19.9223 1.66152L15.366 3.43652L16.818 7.16368ZM21.4835 5.34235C21.3737 5.39282 21.2028 5.44174 20.9929 5.43256C20.7838 5.42342 20.6226 5.36049 20.5255 5.30588L22.4861 1.81932C21.6539 1.35137 20.6933 1.30326 19.8131 1.70785L21.4835 5.34235ZM20.5255 5.30588C20.3965 5.23335 20.2201 5.0921 20.087 4.85963C19.9557 4.63037 19.9281 4.42014 19.9281 4.3001H23.9281C23.9281 3.27271 23.4221 2.34565 22.4861 1.81932L20.5255 5.30588ZM19.9281 4.3001V18.4251H23.9281V4.3001H19.9281ZM19.9281 18.4251C19.9281 18.279 19.9547 18.108 20.0259 17.9319C20.0969 17.7562 20.1955 17.617 20.2933 17.5151L23.179 20.2851C23.6613 19.7827 23.9281 19.1293 23.9281 18.4251H19.9281ZM20.2933 17.5151C20.3973 17.4068 20.5111 17.3446 20.5933 17.3154L21.932 21.0848C22.3896 20.9222 22.8191 20.6601 23.179 20.2851L20.2933 17.5151ZM20.6039 17.3117L15.9453 18.9367L17.2627 22.7135L21.9213 21.0885L20.6039 17.3117ZM16.0416 18.9058C16.0428 18.9054 16.0485 18.9039 16.0581 18.9025C16.0677 18.9011 16.0793 18.9001 16.092 18.9001V22.9001C16.4609 22.9001 16.8207 22.8457 17.1663 22.7444L16.0416 18.9058ZM16.092 18.9001C16.1047 18.9001 16.1163 18.9011 16.126 18.9025C16.1355 18.9039 16.1412 18.9054 16.1424 18.9058L15.0177 22.7444C15.3633 22.8457 15.7232 22.9001 16.092 22.9001V18.9001ZM17.2217 19.1251V6.5001H13.2217V19.1251H17.2217ZM15.8466 4.60021L10.8295 2.95021L9.57987 6.74999L14.5969 8.39999L15.8466 4.60021ZM8.20471 4.8501V17.4751H12.2047V4.8501H8.20471ZM9.57987 19.375L14.5969 21.025L15.8466 17.2252L10.8295 15.5752L9.57987 19.375ZM17.3727 21.0281L21.0075 19.8531L19.7771 16.0471L16.1424 17.2221L17.3727 21.0281ZM22.3923 17.9501V5.1501H18.3923V17.9501H22.3923ZM19.696 3.27524L16.0612 4.62524L17.4539 8.37496L21.0887 7.02496L19.696 3.27524ZM14.7575 6.5001V19.1251H18.7575V6.5001H14.7575ZM5.73046 20.7L9.36523 19.35L7.97254 15.6002L4.33777 16.9502L5.73046 20.7ZM10.6689 17.4751V4.8501H6.66889V17.4751H10.6689ZM8.0537 2.94706L4.41892 4.12206L5.6493 7.92813L9.28407 6.75313L8.0537 2.94706ZM3.03411 6.0251V18.8251H7.03411V6.0251H3.03411Z" fill="#A0A0A0" mask="url(#path-1-inside-1_372_948)"/>
</svg>
