<svg width="24" height="24" viewBox="0 0 24 24" fill="none" xmlns="http://www.w3.org/2000/svg">
<g clip-path="url(#clip0_508_514)">
<path d="M16.8435 13.0126C16.8435 14.3371 16.0415 15.4106 15.0515 15.4106C16.041 15.4106 16.8435 16.4841 16.8435 17.8086M16.8435 17.6876C16.8435 16.3631 17.6455 15.2896 18.6355 15.2896C17.646 15.2896 16.8435 14.2161 16.8435 12.8916" fill="#FF7042"/>
<path d="M16.8435 17.909C16.7885 17.909 16.7435 17.864 16.7435 17.809C16.7435 16.542 15.9845 15.511 15.0515 15.511C14.9965 15.511 14.9515 15.466 14.9515 15.411C14.9515 15.356 14.9965 15.311 15.0515 15.311C15.9845 15.311 16.7435 14.28 16.7435 13.013C16.7435 13.007 16.744 13.001 16.745 12.995C16.744 12.961 16.7435 12.9265 16.7435 12.892C16.7435 12.837 16.7885 12.792 16.8435 12.792C16.8985 12.792 16.9435 12.837 16.9435 12.892C16.9435 14.159 17.7025 15.19 18.6355 15.19C18.6905 15.19 18.7355 15.235 18.7355 15.29C18.7355 15.345 18.6905 15.39 18.6355 15.39C17.7025 15.39 16.9435 16.421 16.9435 17.688C16.9435 17.694 16.943 17.7 16.942 17.706C16.943 17.74 16.9435 17.7745 16.9435 17.809C16.9435 17.864 16.8985 17.909 16.8435 17.909ZM15.5825 15.411C16.159 15.634 16.6225 16.21 16.828 16.949C17.0155 16.152 17.497 15.5245 18.1045 15.29C17.528 15.067 17.0645 14.491 16.859 13.752C16.6715 14.549 16.19 15.1765 15.5825 15.411Z" fill="#FF7042"/>
<path d="M19.336 3.05751C19.336 5.06101 18.1225 6.68551 16.6255 6.68551C18.1225 6.68551 19.336 8.31001 19.336 10.3135M19.336 10.1305C19.336 8.12701 20.5495 6.50251 22.0465 6.50251C20.5495 6.50251 19.336 4.87801 19.336 2.87451" fill="#FF7042"/>
<path d="M19.336 10.4134C19.281 10.4134 19.236 10.3684 19.236 10.3134C19.236 8.36791 18.065 6.78541 16.6255 6.78541C16.5705 6.78541 16.5255 6.74041 16.5255 6.68541C16.5255 6.63041 16.5705 6.58541 16.6255 6.58541C18.065 6.58541 19.236 5.00291 19.236 3.05741C19.236 3.04941 19.237 3.04191 19.2385 3.03491C19.237 2.98141 19.236 2.92841 19.236 2.87441C19.236 2.82041 19.281 2.77441 19.336 2.77441C19.391 2.77441 19.436 2.81941 19.436 2.87441C19.436 4.81991 20.607 6.40241 22.0465 6.40241C22.1015 6.40241 22.1465 6.44741 22.1465 6.50241C22.1465 6.55741 22.1015 6.60241 22.0465 6.60241C20.607 6.60241 19.436 8.18491 19.436 10.1304C19.436 10.1384 19.435 10.1459 19.4335 10.1529C19.435 10.2064 19.436 10.2594 19.436 10.3134C19.436 10.3674 19.391 10.4134 19.336 10.4134ZM17.2735 6.68541C18.249 6.99191 19.03 7.97541 19.317 9.23941C19.568 7.88791 20.376 6.82391 21.3985 6.50241C20.423 6.19591 19.642 5.21241 19.355 3.94841C19.104 5.29991 18.296 6.36391 17.2735 6.68541Z" fill="#FF7042"/>
<path d="M16.612 8.56411L14.582 6.53411C14.2735 6.22561 13.774 6.22561 13.4655 6.53411L1.1115 18.8876C0.803002 19.1961 0.803002 19.6956 1.1115 20.0041L3.1415 22.0341C3.45 22.3426 3.9495 22.3426 4.258 22.0341L16.612 9.68011C16.9205 9.37161 16.9205 8.87211 16.612 8.56361V8.56411ZM15.706 9.67011L13.0555 12.3206C12.913 12.4631 12.682 12.4631 12.54 12.3206L10.8255 10.6061C10.683 10.4636 10.683 10.2326 10.8255 10.0906L13.476 7.44011C13.6185 7.29761 13.8495 7.29761 13.9915 7.44011L15.706 9.15461C15.8485 9.29711 15.8485 9.52811 15.706 9.67011Z" fill="#FF7042"/>
<path d="M9.0335 1.87001C9.0335 3.52901 8.0285 4.87401 6.789 4.87401C8.0285 4.87401 9.0335 6.21901 9.0335 7.87801M9.0335 7.72651C9.0335 6.06751 10.0385 4.72251 11.278 4.72251C10.0385 4.72251 9.0335 3.37751 9.0335 1.71851" fill="#FF7042"/>
<path d="M9.03353 7.97792C8.97853 7.97792 8.93353 7.93292 8.93353 7.87792C8.93353 6.27642 7.97153 4.97392 6.78903 4.97392C6.73403 4.97392 6.68903 4.92892 6.68903 4.87392C6.68903 4.81892 6.73403 4.77392 6.78903 4.77392C7.97153 4.77392 8.93353 3.47142 8.93353 1.86992C8.93353 1.86292 8.93403 1.85592 8.93553 1.84942C8.93403 1.80592 8.93353 1.76192 8.93353 1.71792C8.93353 1.66292 8.97853 1.61792 9.03353 1.61792C9.08853 1.61792 9.13353 1.66292 9.13353 1.71792C9.13353 3.31942 10.0955 4.62192 11.278 4.62192C11.333 4.62192 11.378 4.66692 11.378 4.72192C11.378 4.77692 11.333 4.82192 11.278 4.82192C10.0955 4.82192 9.13353 6.12442 9.13353 7.72592C9.13353 7.73292 9.13303 7.73992 9.13153 7.74642C9.13303 7.78992 9.13353 7.83392 9.13353 7.87792C9.13353 7.93292 9.08853 7.97792 9.03353 7.97792ZM7.38053 4.87392C8.15103 5.13992 8.76853 5.91342 9.01653 6.90742C9.23703 5.84092 9.87753 5.00142 10.687 4.72192C9.91653 4.45592 9.29903 3.68242 9.05153 2.68842C8.83103 3.75492 8.19053 4.59442 7.38103 4.87392H7.38053Z" fill="#FF7042"/>
</g>
<defs>
<clipPath id="clip0_508_514">
<rect width="24" height="24" fill="white"/>
</clipPath>
</defs>
</svg>
