<svg width="16" height="16" viewBox="0 0 16 16" fill="none" xmlns="http://www.w3.org/2000/svg">
<g id="favorite_FILL0_wght400_GRAD0_opsz48 (1) 1">
<path id="Vector" d="M8.00001 13.6667C7.88113 13.6667 7.76013 13.6452 7.63701 13.6022C7.51388 13.5592 7.40561 13.4904 7.31221 13.3958L6.43334 12.5833C5.05557 11.3056 3.86112 10.0861 2.85001 8.925C1.8389 7.76388 1.33334 6.55 1.33334 5.28333C1.33334 4.28161 1.66945 3.44507 2.34168 2.77371C3.0139 2.10235 3.84445 1.76666 4.83334 1.76666C5.40001 1.76666 5.96112 1.90277 6.51668 2.175C7.07223 2.44722 7.56668 2.89444 8.00001 3.51666C8.4889 2.89444 8.99445 2.44722 9.51668 2.175C10.0389 1.90277 10.5889 1.76666 11.1667 1.76666C12.1556 1.76666 12.9861 2.10235 13.6583 2.77371C14.3306 3.44507 14.6667 4.28161 14.6667 5.28333C14.6667 6.55 14.1611 7.76388 13.15 8.925C12.1389 10.0861 10.9445 11.3056 9.56668 12.5833L8.68334 13.4C8.59168 13.4931 8.48543 13.5608 8.36459 13.6032C8.24376 13.6455 8.12223 13.6667 8.00001 13.6667ZM7.56668 4.61666C7.26668 4.07222 6.87223 3.62777 6.38334 3.28333C5.89445 2.93888 5.37779 2.76666 4.83334 2.76666C4.10001 2.76666 3.50001 3.00277 3.03334 3.475C2.56668 3.94722 2.33334 4.55238 2.33334 5.29048C2.33334 5.93016 2.54935 6.60363 2.98136 7.3109C3.41338 8.01816 3.93005 8.70427 4.53136 9.36923C5.13268 10.0342 5.75557 10.6528 6.40001 11.225C7.04446 11.7972 7.57779 12.2778 8.00001 12.6667C8.42223 12.2889 8.95557 11.8111 9.60001 11.2333C10.2445 10.6556 10.8667 10.0306 11.4667 9.35833C12.0667 8.68611 12.5833 7.99615 13.0167 7.28846C13.45 6.58076 13.6667 5.91238 13.6667 5.28333C13.6667 4.55 13.4306 3.94722 12.9583 3.475C12.4861 3.00277 11.8889 2.76666 11.1667 2.76666C10.6111 2.76666 10.0917 2.93611 9.60834 3.275C9.12501 3.61388 8.72223 4.06111 8.40001 4.61666C8.34445 4.70555 8.28334 4.76944 8.21668 4.80833C8.15001 4.84722 8.07223 4.86666 7.98334 4.86666C7.89445 4.86666 7.8139 4.84722 7.74168 4.80833C7.66946 4.76944 7.61112 4.70555 7.56668 4.61666Z" fill="#AAAAAA"/>
</g>
</svg>
