<svg width="27" height="27" viewBox="0 0 27 27" fill="none" xmlns="http://www.w3.org/2000/svg">
<g id="bookmark_FILL0_wght400_GRAD0_opsz48 1">
<path id="Vector" d="M13.5 20.25L7.9875 22.6125C7.425 22.8562 6.89062 22.8117 6.38437 22.4787C5.87812 22.1458 5.625 21.6748 5.625 21.0656V4.92188C5.625 4.47187 5.79375 4.07812 6.13125 3.74062C6.46875 3.40312 6.8625 3.23438 7.3125 3.23438H19.6875C20.1375 3.23438 20.5312 3.40312 20.8687 3.74062C21.2062 4.07812 21.375 4.47187 21.375 4.92188V21.0656C21.375 21.6748 21.1219 22.1458 20.6156 22.4787C20.1094 22.8117 19.575 22.8562 19.0125 22.6125L13.5 20.25ZM13.5 18.45L19.6875 21.0656V4.92188H7.3125V21.0656L13.5 18.45ZM13.5 4.92188H7.3125H19.6875H13.5Z" fill="black"/>
</g>
</svg>
