<svg width="46" height="46" viewBox="0 0 46 46" fill="none" xmlns="http://www.w3.org/2000/svg">
<g filter="url(#filter0_d_853_992)">
<circle cx="23" cy="21" r="19" fill="white"/>
</g>
<path d="M15.8571 21.5C15.6143 21.5 15.4107 21.4277 15.2464 21.2831C15.0821 21.1385 15 20.9594 15 20.7456C15 20.5319 15.0821 20.3542 15.2464 20.2125C15.4107 20.0708 15.6143 20 15.8571 20H30.1429C30.3857 20 30.5893 20.0723 30.7536 20.2169C30.9179 20.3615 31 20.5406 31 20.7544C31 20.9681 30.9179 21.1458 30.7536 21.2875C30.5893 21.4292 30.3857 21.5 30.1429 21.5H15.8571Z" fill="#737373"/>
<defs>
<filter id="filter0_d_853_992" x="0" y="0" width="46" height="46" filterUnits="userSpaceOnUse" color-interpolation-filters="sRGB">
<feFlood flood-opacity="0" result="BackgroundImageFix"/>
<feColorMatrix in="SourceAlpha" type="matrix" values="0 0 0 0 0 0 0 0 0 0 0 0 0 0 0 0 0 0 127 0" result="hardAlpha"/>
<feOffset dy="2"/>
<feGaussianBlur stdDeviation="2"/>
<feComposite in2="hardAlpha" operator="out"/>
<feColorMatrix type="matrix" values="0 0 0 0 0 0 0 0 0 0 0 0 0 0 0 0 0 0 0.25 0"/>
<feBlend mode="normal" in2="BackgroundImageFix" result="effect1_dropShadow_853_992"/>
<feBlend mode="normal" in="SourceGraphic" in2="effect1_dropShadow_853_992" result="shape"/>
</filter>
</defs>
</svg>
