<svg width="18" height="15" viewBox="0 0 18 15" fill="none" xmlns="http://www.w3.org/2000/svg">
<path fill-rule="evenodd" clip-rule="evenodd" d="M8.99922 5.07697C7.80222 5.07697 6.82931 6.05078 6.82931 7.24779C6.82931 8.44389 7.80222 9.4168 8.99922 9.4168C10.1962 9.4168 11.17 8.44389 11.17 7.24779C11.17 6.05078 10.1962 5.07697 8.99922 5.07697ZM8.9993 10.7669C7.05798 10.7669 5.47937 9.18829 5.47937 7.24788C5.47937 5.30656 7.05798 3.72705 8.9993 3.72705C10.9406 3.72705 12.5201 5.30656 12.5201 7.24788C12.5201 9.18829 10.9406 10.7669 8.9993 10.7669Z" fill="#070707"/>
<mask id="mask0_1_257" style="mask-type:luminance" maskUnits="userSpaceOnUse" x="0" y="0" width="18" height="15">
<path fill-rule="evenodd" clip-rule="evenodd" d="M0 0H18V14.4946H0V0Z" fill="white"/>
</mask>
<g mask="url(#mask0_1_257)">
<path fill-rule="evenodd" clip-rule="evenodd" d="M1.41274 7.2471C3.08675 10.9452 5.90647 13.1439 8.99979 13.1448C12.0931 13.1439 14.9128 10.9452 16.5869 7.2471C14.9128 3.54987 12.0931 1.35115 8.99979 1.35025C5.90737 1.35115 3.08675 3.54987 1.41274 7.2471ZM9.00164 14.495H8.99804H8.99714C5.27471 14.4923 1.93209 11.8832 0.0546754 7.51369C-0.0182251 7.34359 -0.0182251 7.15098 0.0546754 6.98088C1.93209 2.61225 5.27561 0.00313088 8.99714 0.000430864C8.99894 -0.000469142 8.99894 -0.000469142 8.99984 0.000430864C9.00164 -0.000469142 9.00164 -0.000469142 9.00254 0.000430864C12.725 0.00313088 16.0676 2.61225 17.945 6.98088C18.0188 7.15098 18.0188 7.34359 17.945 7.51369C16.0685 11.8832 12.725 14.4923 9.00254 14.495H9.00164Z" fill="#070707"/>
</g>
</svg>
