<svg width="28" height="28" viewBox="0 0 28 28" fill="none" xmlns="http://www.w3.org/2000/svg">
<g id="dashboard_FILL0_wght400_GRAD0_opsz48 1">
<path id="Vector" d="M13.7917 9.83333V4.29167C13.7917 4.06736 13.8675 3.87934 14.0193 3.7276C14.171 3.57587 14.359 3.5 14.5833 3.5H21.7083C21.9326 3.5 22.1207 3.57587 22.2724 3.7276C22.4241 3.87934 22.5 4.06736 22.5 4.29167V9.83333C22.5 10.0576 22.4241 10.2457 22.2724 10.3974C22.1207 10.5491 21.9326 10.625 21.7083 10.625H14.5833C14.359 10.625 14.171 10.5491 14.0193 10.3974C13.8675 10.2457 13.7917 10.0576 13.7917 9.83333ZM3.5 13V4.29167C3.5 4.06736 3.57587 3.87934 3.7276 3.7276C3.87934 3.57587 4.06736 3.5 4.29167 3.5H11.4167C11.641 3.5 11.829 3.57587 11.9807 3.7276C12.1325 3.87934 12.2083 4.06736 12.2083 4.29167V13C12.2083 13.2243 12.1325 13.4123 11.9807 13.5641C11.829 13.7158 11.641 13.7917 11.4167 13.7917H4.29167C4.06736 13.7917 3.87934 13.7158 3.7276 13.5641C3.57587 13.4123 3.5 13.2243 3.5 13ZM13.7917 21.7083V13C13.7917 12.7757 13.8675 12.5877 14.0193 12.4359C14.171 12.2842 14.359 12.2083 14.5833 12.2083H21.7083C21.9326 12.2083 22.1207 12.2842 22.2724 12.4359C22.4241 12.5877 22.5 12.7757 22.5 13V21.7083C22.5 21.9326 22.4241 22.1207 22.2724 22.2724C22.1207 22.4241 21.9326 22.5 21.7083 22.5H14.5833C14.359 22.5 14.171 22.4241 14.0193 22.2724C13.8675 22.1207 13.7917 21.9326 13.7917 21.7083ZM3.5 21.7083V16.1667C3.5 15.9424 3.57587 15.7543 3.7276 15.6026C3.87934 15.4509 4.06736 15.375 4.29167 15.375H11.4167C11.641 15.375 11.829 15.4509 11.9807 15.6026C12.1325 15.7543 12.2083 15.9424 12.2083 16.1667V21.7083C12.2083 21.9326 12.1325 22.1207 11.9807 22.2724C11.829 22.4241 11.641 22.5 11.4167 22.5H4.29167C4.06736 22.5 3.87934 22.4241 3.7276 22.2724C3.57587 22.1207 3.5 21.9326 3.5 21.7083ZM5.08333 12.2083H10.625V5.08333H5.08333V12.2083ZM15.375 20.9167H20.9167V13.7917H15.375V20.9167ZM15.375 9.04167H20.9167V5.08333H15.375V9.04167ZM5.08333 20.9167H10.625V16.9583H5.08333V20.9167Z" fill="#FF7042"/>
</g>
</svg>
