<svg width="28" height="28" viewBox="0 0 28 28" fill="none" xmlns="http://www.w3.org/2000/svg">
<g id="dashboard_FILL0_wght400_GRAD0_opsz48 1">
<path id="Vector" d="M12.7083 9.16667V4.20833C12.7083 4.00764 12.7762 3.83941 12.912 3.70365C13.0477 3.56788 13.216 3.5 13.4167 3.5H19.7917C19.9924 3.5 20.1606 3.56788 20.2964 3.70365C20.4321 3.83941 20.5 4.00764 20.5 4.20833V9.16667C20.5 9.36736 20.4321 9.53559 20.2964 9.67135C20.1606 9.80712 19.9924 9.875 19.7917 9.875H13.4167C13.216 9.875 13.0477 9.80712 12.912 9.67135C12.7762 9.53559 12.7083 9.36736 12.7083 9.16667ZM3.5 12V4.20833C3.5 4.00764 3.56788 3.83941 3.70365 3.70365C3.83941 3.56788 4.00764 3.5 4.20833 3.5H10.5833C10.784 3.5 10.9523 3.56788 11.088 3.70365C11.2238 3.83941 11.2917 4.00764 11.2917 4.20833V12C11.2917 12.2007 11.2238 12.3689 11.088 12.5047C10.9523 12.6405 10.784 12.7083 10.5833 12.7083H4.20833C4.00764 12.7083 3.83941 12.6405 3.70365 12.5047C3.56788 12.3689 3.5 12.2007 3.5 12ZM12.7083 19.7917V12C12.7083 11.7993 12.7762 11.6311 12.912 11.4953C13.0477 11.3595 13.216 11.2917 13.4167 11.2917H19.7917C19.9924 11.2917 20.1606 11.3595 20.2964 11.4953C20.4321 11.6311 20.5 11.7993 20.5 12V19.7917C20.5 19.9924 20.4321 20.1606 20.2964 20.2964C20.1606 20.4321 19.9924 20.5 19.7917 20.5H13.4167C13.216 20.5 13.0477 20.4321 12.912 20.2964C12.7762 20.1606 12.7083 19.9924 12.7083 19.7917ZM3.5 19.7917V14.8333C3.5 14.6326 3.56788 14.4644 3.70365 14.3286C3.83941 14.1929 4.00764 14.125 4.20833 14.125H10.5833C10.784 14.125 10.9523 14.1929 11.088 14.3286C11.2238 14.4644 11.2917 14.6326 11.2917 14.8333V19.7917C11.2917 19.9924 11.2238 20.1606 11.088 20.2964C10.9523 20.4321 10.784 20.5 10.5833 20.5H4.20833C4.00764 20.5 3.83941 20.4321 3.70365 20.2964C3.56788 20.1606 3.5 19.9924 3.5 19.7917ZM4.91667 11.2917H9.875V4.91667H4.91667V11.2917ZM14.125 19.0833H19.0833V12.7083H14.125V19.0833ZM14.125 8.45833H19.0833V4.91667H14.125V8.45833ZM4.91667 19.0833H9.875V15.5417H4.91667V19.0833Z" fill="#FF7042"/>
</g>
</svg>
