<svg width="22" height="22" viewBox="0 0 22 22" fill="none" xmlns="http://www.w3.org/2000/svg">
<path d="M11.875 7.5V1.375C11.875 1.12708 11.9589 0.919271 12.1266 0.751563C12.2943 0.583854 12.5021 0.5 12.75 0.5H20.625C20.8729 0.5 21.0807 0.583854 21.2484 0.751563C21.4161 0.919271 21.5 1.12708 21.5 1.375V7.5C21.5 7.74792 21.4161 7.95573 21.2484 8.12344C21.0807 8.29115 20.8729 8.375 20.625 8.375H12.75C12.5021 8.375 12.2943 8.29115 12.1266 8.12344C11.9589 7.95573 11.875 7.74792 11.875 7.5ZM0.5 11V1.375C0.5 1.12708 0.583854 0.919271 0.751563 0.751563C0.919271 0.583854 1.12708 0.5 1.375 0.5H9.25C9.49792 0.5 9.70573 0.583854 9.87344 0.751563C10.0411 0.919271 10.125 1.12708 10.125 1.375V11C10.125 11.2479 10.0411 11.4557 9.87344 11.6234C9.70573 11.7911 9.49792 11.875 9.25 11.875H1.375C1.12708 11.875 0.919271 11.7911 0.751563 11.6234C0.583854 11.4557 0.5 11.2479 0.5 11ZM11.875 20.625V11C11.875 10.7521 11.9589 10.5443 12.1266 10.3766C12.2943 10.2089 12.5021 10.125 12.75 10.125H20.625C20.8729 10.125 21.0807 10.2089 21.2484 10.3766C21.4161 10.5443 21.5 10.7521 21.5 11V20.625C21.5 20.8729 21.4161 21.0807 21.2484 21.2484C21.0807 21.4161 20.8729 21.5 20.625 21.5H12.75C12.5021 21.5 12.2943 21.4161 12.1266 21.2484C11.9589 21.0807 11.875 20.8729 11.875 20.625ZM0.5 20.625V14.5C0.5 14.2521 0.583854 14.0443 0.751563 13.8766C0.919271 13.7089 1.12708 13.625 1.375 13.625H9.25C9.49792 13.625 9.70573 13.7089 9.87344 13.8766C10.0411 14.0443 10.125 14.2521 10.125 14.5V20.625C10.125 20.8729 10.0411 21.0807 9.87344 21.2484C9.70573 21.4161 9.49792 21.5 9.25 21.5H1.375C1.12708 21.5 0.919271 21.4161 0.751563 21.2484C0.583854 21.0807 0.5 20.8729 0.5 20.625ZM2.25 10.125H8.375V2.25H2.25V10.125ZM13.625 19.75H19.75V11.875H13.625V19.75ZM13.625 6.625H19.75V2.25H13.625V6.625ZM2.25 19.75H8.375V15.375H2.25V19.75Z" fill="#FF7042"/>
</svg>
