<svg width="17" height="17" viewBox="0 0 17 17" fill="none" xmlns="http://www.w3.org/2000/svg">
<g id="location_on_FILL0_wght400_GRAD0_opsz48 1">
<path id="Vector" d="M8.49998 14.1845C10.0701 12.756 11.23 11.4603 11.9797 10.2975C12.7293 9.13463 13.1041 8.1105 13.1041 7.22508C13.1041 5.83451 12.6597 4.69589 11.7709 3.80923C10.882 2.92258 9.79171 2.47925 8.49998 2.47925C7.20825 2.47925 6.11796 2.92258 5.22911 3.80923C4.34024 4.69589 3.89581 5.83451 3.89581 7.22508C3.89581 8.1105 4.27949 9.13463 5.04685 10.2975C5.81422 11.4603 6.96526 12.756 8.49998 14.1845ZM8.49555 15.2292C8.36864 15.2292 8.24321 15.2086 8.11925 15.1673C7.99529 15.1259 7.88609 15.0581 7.79165 14.9636C7.29581 14.515 6.75866 13.9985 6.18019 13.4141C5.60172 12.8298 5.06456 12.2011 4.56873 11.5282C4.0729 10.8553 3.6597 10.1529 3.32915 9.42091C2.99859 8.68897 2.83331 7.95703 2.83331 7.22508C2.83331 5.45425 3.40293 4.04348 4.54217 2.99279C5.6814 1.9421 7.00067 1.41675 8.49998 1.41675C9.99929 1.41675 11.3186 1.9421 12.4578 2.99279C13.597 4.04348 14.1666 5.45425 14.1666 7.22508C14.1666 7.95703 14.0014 8.68897 13.6708 9.42091C13.3403 10.1529 12.9271 10.8553 12.4312 11.5282C11.9354 12.2011 11.3982 12.8298 10.8198 13.4141C10.2413 13.9985 9.70415 14.515 9.20831 14.9636C9.11387 15.0581 9.00319 15.1259 8.87628 15.1673C8.74937 15.2086 8.62246 15.2292 8.49555 15.2292ZM8.50156 8.323C8.84287 8.323 9.13453 8.20147 9.37654 7.9584C9.61856 7.71535 9.73956 7.42316 9.73956 7.08184C9.73956 6.74053 9.61803 6.44887 9.37497 6.20685C9.13191 5.96484 8.83973 5.84383 8.4984 5.84383C8.15709 5.84383 7.86543 5.96536 7.62342 6.20843C7.3814 6.45148 7.2604 6.74367 7.2604 7.08499C7.2604 7.4263 7.38193 7.71796 7.62499 7.95998C7.86805 8.20199 8.16023 8.323 8.50156 8.323Z" fill="#6D6D6D"/>
</g>
</svg>
