<svg width="14" height="14" viewBox="0 0 14 14" fill="none" xmlns="http://www.w3.org/2000/svg">
<g id="schedule_FILL0_wght400_GRAD0_opsz48 1">
<path id="Vector" d="M7.48121 6.82496V4.33121C7.48121 4.20482 7.43989 4.10031 7.35725 4.01767C7.27461 3.93503 7.1701 3.89371 7.04371 3.89371C6.91732 3.89371 6.81281 3.93503 6.73017 4.01767C6.64753 4.10031 6.60621 4.20482 6.60621 4.33121V6.99996C6.60621 7.05829 6.61593 7.11176 6.63538 7.16038C6.65482 7.20899 6.68399 7.2576 6.72288 7.30621L8.82288 9.47913C8.91038 9.57635 9.01975 9.62253 9.151 9.61767C9.28225 9.61281 9.39163 9.56663 9.47913 9.47913C9.56663 9.39163 9.61038 9.28468 9.61038 9.15829C9.61038 9.0319 9.56663 8.92496 9.47913 8.83746L7.48121 6.82496ZM6.99996 12.8333C6.20274 12.8333 5.44926 12.6802 4.73954 12.3739C4.02982 12.0677 3.41003 11.6496 2.88017 11.1198C2.35031 10.5899 1.93225 9.9701 1.626 9.26038C1.31975 8.55065 1.16663 7.79718 1.16663 6.99996C1.16663 6.20274 1.31975 5.44926 1.626 4.73954C1.93225 4.02982 2.35031 3.41003 2.88017 2.88017C3.41003 2.35031 4.02982 1.93225 4.73954 1.626C5.44926 1.31975 6.20274 1.16663 6.99996 1.16663C7.79718 1.16663 8.55065 1.31975 9.26038 1.626C9.9701 1.93225 10.5899 2.35031 11.1198 2.88017C11.6496 3.41003 12.0677 4.02982 12.3739 4.73954C12.6802 5.44926 12.8333 6.20274 12.8333 6.99996C12.8333 7.79718 12.6802 8.55065 12.3739 9.26038C12.0677 9.9701 11.6496 10.5899 11.1198 11.1198C10.5899 11.6496 9.9701 12.0677 9.26038 12.3739C8.55065 12.6802 7.79718 12.8333 6.99996 12.8333ZM6.99996 11.9583C8.36107 11.9583 9.52774 11.4722 10.5 10.5C11.4722 9.52774 11.9583 8.36107 11.9583 6.99996C11.9583 5.63885 11.4722 4.47218 10.5 3.49996C9.52774 2.52774 8.36107 2.04163 6.99996 2.04163C5.63885 2.04163 4.47218 2.52774 3.49996 3.49996C2.52774 4.47218 2.04163 5.63885 2.04163 6.99996C2.04163 8.36107 2.52774 9.52774 3.49996 10.5C4.47218 11.4722 5.63885 11.9583 6.99996 11.9583Z" fill="#737373"/>
</g>
</svg>
