<svg width="14" height="14" viewBox="0 0 14 14" fill="none" xmlns="http://www.w3.org/2000/svg">
<path d="M7.00008 11.9583C6.89606 11.9583 6.79019 11.9395 6.68246 11.9019C6.57471 11.8643 6.47998 11.8041 6.39826 11.7213L5.62925 11.0104C4.42369 9.89236 3.37855 8.82534 2.49383 7.80937C1.60911 6.7934 1.16675 5.73125 1.16675 4.62291C1.16675 3.74641 1.46085 3.01443 2.04904 2.427C2.63723 1.83955 3.36397 1.54583 4.22925 1.54583C4.72508 1.54583 5.21605 1.66493 5.70216 1.90312C6.18828 2.14132 6.62091 2.53264 7.00008 3.07708C7.42786 2.53264 7.87022 2.14132 8.32716 1.90312C8.78411 1.66493 9.26536 1.54583 9.77091 1.54583C10.6362 1.54583 11.3629 1.83955 11.9511 2.427C12.5393 3.01443 12.8334 3.74641 12.8334 4.62291C12.8334 5.73125 12.3911 6.7934 11.5063 7.80937C10.6216 8.82534 9.57647 9.89236 8.37091 11.0104L7.598 11.725C7.51779 11.8065 7.42482 11.8657 7.31909 11.9028C7.21336 11.9398 7.10703 11.9583 7.00008 11.9583Z" fill="white"/>
</svg>
