<svg width="28" height="28" viewBox="0 0 28 28" fill="none" xmlns="http://www.w3.org/2000/svg">
<path d="M14.875 10.5V4.375C14.875 4.12708 14.9589 3.91927 15.1266 3.75156C15.2943 3.58385 15.5021 3.5 15.75 3.5H23.625C23.8729 3.5 24.0807 3.58385 24.2484 3.75156C24.4161 3.91927 24.5 4.12708 24.5 4.375V10.5C24.5 10.7479 24.4161 10.9557 24.2484 11.1234C24.0807 11.2911 23.8729 11.375 23.625 11.375H15.75C15.5021 11.375 15.2943 11.2911 15.1266 11.1234C14.9589 10.9557 14.875 10.7479 14.875 10.5ZM3.5 14V4.375C3.5 4.12708 3.58385 3.91927 3.75156 3.75156C3.91927 3.58385 4.12708 3.5 4.375 3.5H12.25C12.4979 3.5 12.7057 3.58385 12.8734 3.75156C13.0411 3.91927 13.125 4.12708 13.125 4.375V14C13.125 14.2479 13.0411 14.4557 12.8734 14.6234C12.7057 14.7911 12.4979 14.875 12.25 14.875H4.375C4.12708 14.875 3.91927 14.7911 3.75156 14.6234C3.58385 14.4557 3.5 14.2479 3.5 14ZM14.875 23.625V14C14.875 13.7521 14.9589 13.5443 15.1266 13.3766C15.2943 13.2089 15.5021 13.125 15.75 13.125H23.625C23.8729 13.125 24.0807 13.2089 24.2484 13.3766C24.4161 13.5443 24.5 13.7521 24.5 14V23.625C24.5 23.8729 24.4161 24.0807 24.2484 24.2484C24.0807 24.4161 23.8729 24.5 23.625 24.5H15.75C15.5021 24.5 15.2943 24.4161 15.1266 24.2484C14.9589 24.0807 14.875 23.8729 14.875 23.625ZM3.5 23.625V17.5C3.5 17.2521 3.58385 17.0443 3.75156 16.8766C3.91927 16.7089 4.12708 16.625 4.375 16.625H12.25C12.4979 16.625 12.7057 16.7089 12.8734 16.8766C13.0411 17.0443 13.125 17.2521 13.125 17.5V23.625C13.125 23.8729 13.0411 24.0807 12.8734 24.2484C12.7057 24.4161 12.4979 24.5 12.25 24.5H4.375C4.12708 24.5 3.91927 24.4161 3.75156 24.2484C3.58385 24.0807 3.5 23.8729 3.5 23.625ZM5.25 13.125H11.375V5.25H5.25V13.125ZM16.625 22.75H22.75V14.875H16.625V22.75ZM16.625 9.625H22.75V5.25H16.625V9.625ZM5.25 22.75H11.375V18.375H5.25V22.75Z" fill="#B9BCBE"/>
</svg>
