<svg width="16" height="20" viewBox="0 0 16 20" fill="none" xmlns="http://www.w3.org/2000/svg">
<path d="M8 18.025C10.2167 16.0083 11.8542 14.1792 12.9125 12.5375C13.9708 10.8958 14.5 9.45 14.5 8.2C14.5 6.23683 13.8726 4.62937 12.6177 3.37762C11.3628 2.12587 9.82362 1.5 8 1.5C6.17638 1.5 4.63715 2.12587 3.3823 3.37762C2.12743 4.62937 1.5 6.23683 1.5 8.2C1.5 9.45 2.04167 10.8958 3.125 12.5375C4.20833 14.1792 5.83333 16.0083 8 18.025ZM7.99375 19.5C7.81458 19.5 7.6375 19.4708 7.4625 19.4125C7.2875 19.3542 7.13333 19.2583 7 19.125C6.3 18.4917 5.54167 17.7625 4.725 16.9375C3.90833 16.1125 3.15 15.225 2.45 14.275C1.75 13.325 1.16667 12.3333 0.7 11.3C0.233333 10.2667 0 9.23333 0 8.2C0 5.7 0.804166 3.70833 2.4125 2.225C4.02083 0.741667 5.88333 0 8 0C10.1167 0 11.9792 0.741667 13.5875 2.225C15.1958 3.70833 16 5.7 16 8.2C16 9.23333 15.7667 10.2667 15.3 11.3C14.8333 12.3333 14.25 13.325 13.55 14.275C12.85 15.225 12.0917 16.1125 11.275 16.9375C10.4583 17.7625 9.7 18.4917 9 19.125C8.86667 19.2583 8.71042 19.3542 8.53125 19.4125C8.35208 19.4708 8.17292 19.5 7.99375 19.5ZM8.00222 9.75C8.48407 9.75 8.89583 9.57843 9.2375 9.23528C9.57917 8.89214 9.75 8.47964 9.75 7.99778C9.75 7.51593 9.57842 7.10417 9.23527 6.7625C8.89214 6.42083 8.47964 6.25 7.99777 6.25C7.51592 6.25 7.10417 6.42158 6.7625 6.76472C6.42083 7.10786 6.25 7.52036 6.25 8.00222C6.25 8.48407 6.42157 8.89583 6.76472 9.2375C7.10786 9.57917 7.52036 9.75 8.00222 9.75Z" fill="black"/>
</svg>
