<svg width="14" height="14" viewBox="0 0 14 14" fill="none" xmlns="http://www.w3.org/2000/svg">
<g id="location_on_FILL0_wght400_GRAD0_opsz48 (2) 2">
<path id="Vector" d="M7.00004 11.6812C8.2931 10.5048 9.2483 9.43781 9.86566 8.48017C10.483 7.52253 10.7917 6.67913 10.7917 5.94996C10.7917 4.80478 10.4257 3.86709 9.6937 3.13691C8.9617 2.40672 8.06382 2.04163 7.00004 2.04163C5.93626 2.04163 5.03838 2.40672 4.30638 3.13691C3.57438 3.86709 3.20837 4.80478 3.20837 5.94996C3.20837 6.67913 3.52435 7.52253 4.15629 8.48017C4.78823 9.43781 5.73615 10.5048 7.00004 11.6812ZM6.99639 12.5416C6.89188 12.5416 6.78858 12.5246 6.6865 12.4906C6.58441 12.4566 6.49448 12.4007 6.41671 12.3229C6.00837 11.9534 5.56601 11.5281 5.08962 11.0468C4.61323 10.5656 4.17087 10.0479 3.76254 9.49371C3.35421 8.93954 3.01393 8.36107 2.74171 7.75829C2.46949 7.15551 2.33337 6.55274 2.33337 5.94996C2.33337 4.49163 2.80247 3.32982 3.74067 2.46454C4.67886 1.59926 5.76532 1.16663 7.00004 1.16663C8.23476 1.16663 9.32122 1.59926 10.2594 2.46454C11.1976 3.32982 11.6667 4.49163 11.6667 5.94996C11.6667 6.55274 11.5306 7.15551 11.2584 7.75829C10.9862 8.36107 10.6459 8.93954 10.2375 9.49371C9.82921 10.0479 9.38685 10.5656 8.91046 11.0468C8.43407 11.5281 7.99171 11.9534 7.58337 12.3229C7.5056 12.4007 7.41445 12.4566 7.30994 12.4906C7.20542 12.5246 7.10091 12.5416 6.99639 12.5416ZM7.00134 6.85413C7.28242 6.85413 7.52261 6.75404 7.72192 6.55387C7.92122 6.35371 8.02087 6.11308 8.02087 5.832C8.02087 5.55092 7.92079 5.31072 7.72062 5.11142C7.52046 4.91211 7.27983 4.81246 6.99874 4.81246C6.71766 4.81246 6.47747 4.91254 6.27817 5.11272C6.07886 5.31288 5.97921 5.5535 5.97921 5.83459C5.97921 6.11567 6.07929 6.35586 6.27946 6.55517C6.47962 6.75447 6.72025 6.85413 7.00134 6.85413Z" fill="#737373"/>
</g>
</svg>
