<svg width="24" height="25" viewBox="0 0 24 25" fill="none" xmlns="http://www.w3.org/2000/svg">
<path d="M12 20.8668C14.2167 18.8501 15.8542 17.021 16.9125 15.3793C17.9708 13.7376 18.5 12.2918 18.5 11.0418C18.5 9.07863 17.8726 7.47117 16.6177 6.21942C15.3629 4.96767 13.8236 4.3418 12 4.3418C10.1764 4.3418 8.63715 4.96767 7.3823 6.21942C6.12743 7.47117 5.5 9.07863 5.5 11.0418C5.5 12.2918 6.04167 13.7376 7.125 15.3793C8.20833 17.021 9.83333 18.8501 12 20.8668ZM11.9938 22.3418C11.8146 22.3418 11.6375 22.3126 11.4625 22.2543C11.2875 22.196 11.1333 22.1001 11 21.9668C10.3 21.3335 9.54167 20.6043 8.725 19.7793C7.90833 18.9543 7.15 18.0668 6.45 17.1168C5.75 16.1668 5.16667 15.1751 4.7 14.1418C4.23333 13.1085 4 12.0751 4 11.0418C4 8.5418 4.80417 6.55013 6.4125 5.0668C8.02083 3.58346 9.88333 2.8418 12 2.8418C14.1167 2.8418 15.9792 3.58346 17.5875 5.0668C19.1958 6.55013 20 8.5418 20 11.0418C20 12.0751 19.7667 13.1085 19.3 14.1418C18.8333 15.1751 18.25 16.1668 17.55 17.1168C16.85 18.0668 16.0917 18.9543 15.275 19.7793C14.4583 20.6043 13.7 21.3335 13 21.9668C12.8667 22.1001 12.7104 22.196 12.5312 22.2543C12.3521 22.3126 12.1729 22.3418 11.9938 22.3418ZM12.0022 12.5918C12.4841 12.5918 12.8958 12.4202 13.2375 12.0771C13.5792 11.7339 13.75 11.3214 13.75 10.8396C13.75 10.3577 13.5784 9.94596 13.2353 9.6043C12.8921 9.26263 12.4796 9.0918 11.9978 9.0918C11.5159 9.0918 11.1042 9.26337 10.7625 9.60652C10.4208 9.94965 10.25 10.3622 10.25 10.844C10.25 11.3259 10.4216 11.7376 10.7647 12.0793C11.1079 12.421 11.5204 12.5918 12.0022 12.5918Z" fill="white"/>
</svg>
