<svg width="14" height="14" viewBox="0 0 14 14" fill="none" xmlns="http://www.w3.org/2000/svg">
<g id="call_FILL0_wght400_GRAD0_opsz48 1">
<path id="Vector" d="M11.5938 12.25C10.466 12.25 9.31632 11.9778 8.14479 11.4333C6.97326 10.8889 5.88681 10.116 4.88542 9.11458C3.88403 8.11319 3.11111 7.02674 2.56667 5.85521C2.02222 4.68368 1.75 3.53403 1.75 2.40625C1.75 2.21875 1.8125 2.0625 1.9375 1.9375C2.0625 1.8125 2.21875 1.75 2.40625 1.75H4.44792C4.58403 1.75 4.70069 1.79861 4.79792 1.89583C4.89514 1.99306 4.96319 2.11458 5.00208 2.26042L5.3948 4.09268C5.41493 4.23228 5.41285 4.35799 5.38854 4.46979C5.36424 4.5816 5.31208 4.67749 5.23208 4.75746L3.77708 6.22708C4.02986 6.65486 4.29722 7.05347 4.57917 7.42292C4.86111 7.79236 5.17222 8.14236 5.5125 8.47292C5.87222 8.84236 6.25139 9.18021 6.65 9.48646C7.04861 9.79271 7.46667 10.0625 7.90417 10.2958L9.28958 8.86667C9.38681 8.75972 9.49935 8.68681 9.6272 8.64792C9.75506 8.60903 9.88071 8.59931 10.0042 8.61875L11.7396 8.99792C11.8854 9.03681 12.0069 9.1148 12.1042 9.23189C12.2014 9.34899 12.25 9.48002 12.25 9.625V11.5938C12.25 11.7813 12.1875 11.9375 12.0625 12.0625C11.9375 12.1875 11.7813 12.25 11.5938 12.25ZM3.33958 5.425L4.52083 4.22917L4.18542 2.625H2.625C2.64444 3.03333 2.71007 3.46354 2.82187 3.91563C2.93368 4.36771 3.10625 4.87083 3.33958 5.425ZM8.72083 10.7188C9.11944 10.9035 9.55208 11.0542 10.0188 11.1708C10.4854 11.2875 10.9375 11.3556 11.375 11.375V9.81458L9.87292 9.50833L8.72083 10.7188Z" fill="#737373"/>
</g>
</svg>
