<svg width="58" height="58" viewBox="0 0 58 58" fill="none" xmlns="http://www.w3.org/2000/svg">
<g filter="url(#filter0_d_853_974)">
<circle cx="29" cy="27" r="25" fill="white"/>
</g>
<path d="M34 27C34 22.55 28.62 20.31 25.46 23.46C22.31 26.61 24.55 32 29 32C31.76 32 34 29.76 34 27ZM29 30C26.33 30 25 26.77 26.88 24.88C28.77 23 32 24.33 32 27C32 28.66 30.66 30 29 30ZM22 30H20V34C20 35.1 20.9 36 22 36H26V34H22M22 20H26V18H22C20.9 18 20 18.9 20 20V24H22M36 18H32V20H36V24H38V20C38 18.9 37.1 18 36 18ZM36 34H32V36H36C37.1 36 38 35.1 38 34V30H36" fill="black"/>
<defs>
<filter id="filter0_d_853_974" x="0" y="0" width="58" height="58" filterUnits="userSpaceOnUse" color-interpolation-filters="sRGB">
<feFlood flood-opacity="0" result="BackgroundImageFix"/>
<feColorMatrix in="SourceAlpha" type="matrix" values="0 0 0 0 0 0 0 0 0 0 0 0 0 0 0 0 0 0 127 0" result="hardAlpha"/>
<feOffset dy="2"/>
<feGaussianBlur stdDeviation="2"/>
<feComposite in2="hardAlpha" operator="out"/>
<feColorMatrix type="matrix" values="0 0 0 0 0 0 0 0 0 0 0 0 0 0 0 0 0 0 0.25 0"/>
<feBlend mode="normal" in2="BackgroundImageFix" result="effect1_dropShadow_853_974"/>
<feBlend mode="normal" in="SourceGraphic" in2="effect1_dropShadow_853_974" result="shape"/>
</filter>
</defs>
</svg>
