<svg width="25" height="24" viewBox="0 0 25 24" fill="none" xmlns="http://www.w3.org/2000/svg">
<mask id="path-1-inside-1_372_826" fill="white">
<path d="M15.5803 20.8251L9.36025 18.6751L4.77839 20.4501C4.48829 20.6001 4.20245 20.5918 3.92089 20.4251C3.63932 20.2584 3.49854 20.0084 3.49854 19.6751V5.7251C3.49854 5.50843 3.56253 5.31676 3.69051 5.1501C3.8185 4.98343 3.98488 4.85843 4.18965 4.7751L8.84831 3.1751C9.01896 3.1251 9.1896 3.1001 9.36025 3.1001C9.5309 3.1001 9.70154 3.1251 9.87219 3.1751L16.0923 5.3001L20.6485 3.5251C20.9386 3.39176 21.2245 3.40426 21.506 3.5626C21.7876 3.72093 21.9284 3.96676 21.9284 4.3001V18.4251C21.9284 18.6084 21.8644 18.7668 21.7364 18.9001C21.6084 19.0334 21.4506 19.1334 21.2629 19.2001L16.6042 20.8251C16.4336 20.8751 16.2629 20.9001 16.0923 20.9001C15.9216 20.9001 15.751 20.8751 15.5803 20.8251ZM15.222 19.1251V6.5001L10.205 4.8501V17.4751L15.222 19.1251ZM16.7578 19.1251L20.3926 17.9501V5.1501L16.7578 6.5001V19.1251ZM5.03436 18.8251L8.66913 17.4751V4.8501L5.03436 6.0251V18.8251Z"/>
</mask>
<path d="M15.5803 20.8251L14.9269 22.7154L14.9721 22.731L15.018 22.7444L15.5803 20.8251ZM9.36025 18.6751L10.0136 16.7848L9.32107 16.5454L8.63778 16.8102L9.36025 18.6751ZM4.77839 20.4501L4.05591 18.5852L3.95547 18.6241L3.85979 18.6735L4.77839 20.4501ZM4.18965 4.7751L3.54001 2.88355L3.48736 2.90163L3.43579 2.92262L4.18965 4.7751ZM8.84831 3.1751L8.28595 1.25579L8.24199 1.26867L8.19866 1.28355L8.84831 3.1751ZM9.87219 3.1751L10.5188 1.2825L10.477 1.26821L10.4346 1.25579L9.87219 3.1751ZM16.0923 5.3001L15.4457 7.1927L16.1373 7.42897L16.8183 7.16368L16.0923 5.3001ZM20.6485 3.5251L21.3745 5.38868L21.4298 5.36713L21.4838 5.34235L20.6485 3.5251ZM21.2629 19.2001L21.9216 21.0885L21.9322 21.0848L21.2629 19.2001ZM16.6042 20.8251L17.1666 22.7444L17.2151 22.7302L17.2629 22.7135L16.6042 20.8251ZM15.222 19.1251L14.5971 21.025L17.222 21.8882V19.1251H15.222ZM15.222 6.5001H17.222V5.05247L15.8468 4.60021L15.222 6.5001ZM10.205 4.8501L10.8298 2.95021L8.20495 2.08695V4.8501H10.205ZM10.205 17.4751H8.20495V18.9227L9.58012 19.375L10.205 17.4751ZM16.7578 19.1251H14.7578V21.8735L17.373 21.0281L16.7578 19.1251ZM20.3926 17.9501L21.0078 19.8531L22.3926 19.4055V17.9501H20.3926ZM20.3926 5.1501H22.3926V2.27378L19.6962 3.27524L20.3926 5.1501ZM16.7578 6.5001L16.0614 4.62524L14.7578 5.10943V6.5001H16.7578ZM5.03436 18.8251H3.03436V21.7014L5.7307 20.7L5.03436 18.8251ZM8.66913 17.4751L9.36548 19.35L10.6691 18.8658V17.4751H8.66913ZM8.66913 4.8501H10.6691V2.10166L8.05394 2.94706L8.66913 4.8501ZM5.03436 6.0251L4.41917 4.12206L3.03436 4.56973V6.0251H5.03436ZM16.2337 18.9348L10.0136 16.7848L8.70687 20.5654L14.9269 22.7154L16.2337 18.9348ZM8.63778 16.8102L4.05591 18.5852L5.50086 22.315L10.0827 20.54L8.63778 16.8102ZM3.85979 18.6735C3.97283 18.6151 4.16272 18.5501 4.40472 18.5572C4.64653 18.5642 4.83151 18.64 4.93964 18.704L2.90213 22.1462C3.77543 22.6631 4.79327 22.6939 5.69698 22.2267L3.85979 18.6735ZM4.93964 18.704C5.05779 18.7739 5.22195 18.9095 5.3468 19.1312C5.47065 19.3512 5.49854 19.5541 5.49854 19.6751H1.49854C1.49854 20.6989 1.99843 21.6113 2.90213 22.1462L4.93964 18.704ZM5.49854 19.6751V5.7251H1.49854V19.6751H5.49854ZM5.49854 5.7251C5.49854 5.81648 5.48454 5.92958 5.44359 6.05223C5.40241 6.17557 5.34269 6.28237 5.27677 6.3682L2.10425 3.93199C1.69912 4.45957 1.49854 5.08266 1.49854 5.7251H5.49854ZM5.27677 6.3682C5.23141 6.42728 5.17583 6.48286 5.11261 6.53036C5.04987 6.57749 4.99066 6.6084 4.94352 6.62758L3.43579 2.92262C2.91999 3.13252 2.45991 3.46885 2.10425 3.93199L5.27677 6.3682ZM4.8393 6.66665L9.49796 5.06665L8.19866 1.28355L3.54001 2.88355L4.8393 6.66665ZM9.41067 5.09441C9.40944 5.09477 9.40376 5.09632 9.39419 5.09772C9.38454 5.09914 9.37298 5.1001 9.36025 5.1001V1.1001C8.99139 1.1001 8.63154 1.15453 8.28595 1.25579L9.41067 5.09441ZM9.36025 5.1001C9.34752 5.1001 9.33596 5.09914 9.32631 5.09772C9.31674 5.09632 9.31107 5.09477 9.30983 5.09441L10.4346 1.25579C10.089 1.15453 9.72911 1.1001 9.36025 1.1001V5.1001ZM9.22561 5.0677L15.4457 7.1927L16.7388 3.4075L10.5188 1.2825L9.22561 5.0677ZM16.8183 7.16368L21.3745 5.38868L19.9225 1.66152L15.3663 3.43652L16.8183 7.16368ZM21.4838 5.34235C21.3739 5.39282 21.203 5.44174 20.9931 5.43256C20.7841 5.42342 20.6229 5.36049 20.5257 5.30588L22.4863 1.81932C21.6542 1.35137 20.6936 1.30326 19.8133 1.70785L21.4838 5.34235ZM20.5257 5.30588C20.3968 5.23335 20.2204 5.0921 20.0872 4.85964C19.9559 4.63037 19.9284 4.42014 19.9284 4.3001H23.9284C23.9284 3.27271 23.4223 2.34564 22.4863 1.81932L20.5257 5.30588ZM19.9284 4.3001V18.4251H23.9284V4.3001H19.9284ZM19.9284 18.4251C19.9284 18.279 19.955 18.1079 20.0261 17.9319C20.0971 17.7562 20.1958 17.617 20.2936 17.5151L23.1793 20.2851C23.6615 19.7827 23.9284 19.1294 23.9284 18.4251H19.9284ZM20.2936 17.5151C20.3975 17.4068 20.5113 17.3446 20.5935 17.3154L21.9322 21.0848C22.3898 20.9222 22.8193 20.6601 23.1793 20.2851L20.2936 17.5151ZM20.6042 17.3117L15.9455 18.9367L17.2629 22.7135L21.9216 21.0885L20.6042 17.3117ZM16.0418 18.9058C16.0431 18.9054 16.0488 18.9039 16.0583 18.9025C16.068 18.9011 16.0795 18.9001 16.0923 18.9001V22.9001C16.4611 22.9001 16.821 22.8457 17.1666 22.7444L16.0418 18.9058ZM16.0923 18.9001C16.105 18.9001 16.1166 18.9011 16.1262 18.9025C16.1358 18.9039 16.1415 18.9054 16.1427 18.9058L15.018 22.7444C15.3636 22.8457 15.7234 22.9001 16.0923 22.9001V18.9001ZM17.222 19.1251V6.5001H13.222V19.1251H17.222ZM15.8468 4.60021L10.8298 2.95021L9.58012 6.74999L14.5971 8.39999L15.8468 4.60021ZM8.20495 4.8501V17.4751H12.205V4.8501H8.20495ZM9.58012 19.375L14.5971 21.025L15.8468 17.2252L10.8298 15.5752L9.58012 19.375ZM17.373 21.0281L21.0078 19.8531L19.7774 16.0471L16.1426 17.2221L17.373 21.0281ZM22.3926 17.9501V5.1501H18.3926V17.9501H22.3926ZM19.6962 3.27524L16.0614 4.62524L17.4541 8.37496L21.0889 7.02496L19.6962 3.27524ZM14.7578 6.5001V19.1251H18.7578V6.5001H14.7578ZM5.7307 20.7L9.36548 19.35L7.97279 15.6002L4.33801 16.9502L5.7307 20.7ZM10.6691 17.4751V4.8501H6.66913V17.4751H10.6691ZM8.05394 2.94706L4.41917 4.12206L5.64954 7.92813L9.28432 6.75313L8.05394 2.94706ZM3.03436 6.0251V18.8251H7.03436V6.0251H3.03436Z" fill="#D9D9D9" mask="url(#path-1-inside-1_372_826)"/>
</svg>
