<svg width="28" height="28" viewBox="0 0 28 28" fill="none" xmlns="http://www.w3.org/2000/svg">
<mask id="path-1-inside-1_733_1664" fill="white">
<path d="M17.2667 24.2959L10.1792 21.7875L4.95833 23.8584C4.62778 24.0334 4.30208 24.0236 3.98125 23.8292C3.66042 23.6348 3.5 23.3431 3.5 22.9542V6.6792C3.5 6.42642 3.57292 6.20281 3.71875 6.00837C3.86458 5.81392 4.05417 5.66809 4.2875 5.57087L9.59583 3.7042C9.79028 3.64587 9.98472 3.6167 10.1792 3.6167C10.3736 3.6167 10.5681 3.64587 10.7625 3.7042L17.85 6.18337L23.0417 4.11253C23.3722 3.95698 23.6979 3.97156 24.0187 4.15628C24.3396 4.341 24.5 4.62781 24.5 5.0167V21.4959C24.5 21.7098 24.4271 21.8945 24.2812 22.05C24.1354 22.2056 23.9556 22.3223 23.7417 22.4L18.4333 24.2959C18.2389 24.3542 18.0444 24.3834 17.85 24.3834C17.6556 24.3834 17.4611 24.3542 17.2667 24.2959ZM16.8583 22.3125V7.58337L11.1417 5.65837V20.3875L16.8583 22.3125ZM18.6083 22.3125L22.75 20.9417V6.00837L18.6083 7.58337V22.3125ZM5.25 21.9625L9.39167 20.3875V5.65837L5.25 7.0292V21.9625Z"/>
</mask>
<path d="M17.2667 24.2959L16.5994 26.1813L16.6453 26.1975L16.692 26.2115L17.2667 24.2959ZM10.1792 21.7875L10.8464 19.9021L10.1392 19.6518L9.44176 19.9284L10.1792 21.7875ZM4.95833 23.8584L4.22093 21.9993L4.11924 22.0396L4.02256 22.0908L4.95833 23.8584ZM4.2875 5.57087L3.62403 3.68412L3.57057 3.70292L3.51827 3.72471L4.2875 5.57087ZM9.59583 3.7042L9.02114 1.78855L8.97641 1.80196L8.93236 1.81745L9.59583 3.7042ZM10.7625 3.7042L11.4229 1.81636L11.3803 1.80149L11.3372 1.78855L10.7625 3.7042ZM17.85 6.18337L17.1896 8.0712L17.896 8.31827L18.591 8.04104L17.85 6.18337ZM23.0417 4.11253L23.7826 5.9702L23.8387 5.94786L23.8933 5.92217L23.0417 4.11253ZM23.7417 22.4L24.4144 24.2835L24.4252 24.2796L23.7417 22.4ZM18.4333 24.2959L19.008 26.2115L19.0574 26.1967L19.106 26.1794L18.4333 24.2959ZM16.8583 22.3125L16.2201 24.208L18.8583 25.0963V22.3125H16.8583ZM16.8583 7.58337H18.8583V6.14649L17.4966 5.68794L16.8583 7.58337ZM11.1417 5.65837L11.7799 3.76294L9.14167 2.87455V5.65837H11.1417ZM11.1417 20.3875H9.14167V21.8244L10.5034 22.283L11.1417 20.3875ZM18.6083 22.3125H16.6083V25.0812L19.2368 24.2112L18.6083 22.3125ZM22.75 20.9417L23.3784 22.8404L24.75 22.3864V20.9417H22.75ZM22.75 6.00837H24.75V3.10807L22.0391 4.13897L22.75 6.00837ZM18.6083 7.58337L17.8974 5.71397L16.6083 6.2042V7.58337H18.6083ZM5.25 21.9625H3.25V24.8628L5.9609 23.8319L5.25 21.9625ZM9.39167 20.3875L10.1026 22.2569L11.3917 21.7667V20.3875H9.39167ZM9.39167 5.65837H11.3917V2.88969L8.76322 3.75967L9.39167 5.65837ZM5.25 7.0292L4.62156 5.1305L3.25 5.58447V7.0292H5.25ZM17.9339 22.4105L10.8464 19.9021L9.5119 23.6729L16.5994 26.1813L17.9339 22.4105ZM9.44176 19.9284L4.22093 21.9993L5.69574 25.7175L10.9166 23.6466L9.44176 19.9284ZM4.02256 22.0908C4.11757 22.0405 4.29397 21.9763 4.52582 21.9832C4.75734 21.9901 4.92823 22.0645 5.01785 22.1188L2.94465 25.5396C3.86487 26.0973 4.93947 26.1313 5.89411 25.6259L4.02256 22.0908ZM5.01785 22.1188C5.11852 22.1798 5.2633 22.3018 5.37274 22.5008C5.48037 22.6965 5.5 22.8686 5.5 22.9542H1.5C1.5 24.0112 1.99947 24.9668 2.94465 25.5396L5.01785 22.1188ZM5.5 22.9542V6.6792H1.5V22.9542H5.5ZM5.5 6.6792C5.5 6.74765 5.48968 6.83912 5.45615 6.94195C5.42234 7.04562 5.37299 7.13604 5.31875 7.20837L2.11875 4.80837C1.70236 5.36356 1.5 6.01223 1.5 6.6792H5.5ZM5.31875 7.20837C5.28464 7.25385 5.24101 7.29896 5.18973 7.33841C5.13884 7.37755 5.09172 7.40244 5.05673 7.41702L3.51827 3.72471C2.96907 3.95355 2.48763 4.31652 2.11875 4.80837L5.31875 7.20837ZM4.95097 7.45761L10.2593 5.59094L8.93236 1.81745L3.62403 3.68412L4.95097 7.45761ZM10.1705 5.61985C10.1796 5.61712 10.184 5.61648 10.1842 5.61645C10.1843 5.61643 10.1824 5.6167 10.1792 5.6167V1.6167C9.78164 1.6167 9.39377 1.67676 9.02114 1.78855L10.1705 5.61985ZM10.1792 5.6167C10.176 5.6167 10.174 5.61643 10.1742 5.61645C10.1743 5.61648 10.1787 5.61712 10.1878 5.61985L11.3372 1.78855C10.9646 1.67676 10.5767 1.6167 10.1792 1.6167V5.6167ZM10.1021 5.59204L17.1896 8.0712L18.5104 4.29553L11.4229 1.81636L10.1021 5.59204ZM18.591 8.04104L23.7826 5.9702L22.3007 2.25486L17.109 4.32569L18.591 8.04104ZM23.8933 5.92217C23.8007 5.96573 23.6433 6.01371 23.4444 6.0048C23.2466 5.99594 23.0998 5.93498 23.0208 5.88953L25.0167 2.42304C24.138 1.91713 23.1219 1.86437 22.1901 2.3029L23.8933 5.92217ZM23.0208 5.88953C22.9088 5.82503 22.7518 5.69647 22.6342 5.48623C22.5193 5.28086 22.5 5.10123 22.5 5.0167H26.5C26.5 3.95678 25.995 2.9863 25.0167 2.42304L23.0208 5.88953ZM22.5 5.0167V21.4959H26.5V5.0167H22.5ZM22.5 21.4959C22.5 21.3709 22.5223 21.2194 22.585 21.0605C22.6478 20.9014 22.7354 20.7747 22.8222 20.6822L25.7403 23.4179C26.2349 22.8904 26.5 22.2161 26.5 21.4959H22.5ZM22.8222 20.6822C22.8604 20.6413 22.9036 20.6054 22.9486 20.5763C22.9931 20.5474 23.0317 20.5301 23.0582 20.5204L24.4252 24.2796C24.9138 24.1019 25.3654 23.8179 25.7403 23.4179L22.8222 20.6822ZM23.069 20.5166L17.7607 22.4124L19.106 26.1794L24.4143 24.2835L23.069 20.5166ZM17.8586 22.3802C17.8495 22.3829 17.8452 22.3836 17.845 22.3836C17.8449 22.3836 17.8468 22.3834 17.85 22.3834V26.3834C18.2475 26.3834 18.6354 26.3233 19.008 26.2115L17.8586 22.3802ZM17.85 22.3834C17.8532 22.3834 17.8551 22.3836 17.855 22.3836C17.8548 22.3836 17.8505 22.3829 17.8414 22.3802L16.692 26.2115C17.0646 26.3233 17.4525 26.3834 17.85 26.3834V22.3834ZM18.8583 22.3125V7.58337H14.8583V22.3125H18.8583ZM17.4966 5.68794L11.7799 3.76294L10.5034 7.55379L16.2201 9.47879L17.4966 5.68794ZM9.14167 5.65837V20.3875H13.1417V5.65837H9.14167ZM10.5034 22.283L16.2201 24.208L17.4966 20.4171L11.7799 18.4921L10.5034 22.283ZM19.2368 24.2112L23.3784 22.8404L22.1216 19.043L17.9799 20.4138L19.2368 24.2112ZM24.75 20.9417V6.00837H20.75V20.9417H24.75ZM22.0391 4.13897L17.8974 5.71397L19.3192 9.45276L23.4609 7.87776L22.0391 4.13897ZM16.6083 7.58337V22.3125H20.6083V7.58337H16.6083ZM5.9609 23.8319L10.1026 22.2569L8.68077 18.5181L4.5391 20.0931L5.9609 23.8319ZM11.3917 20.3875V5.65837H7.39167V20.3875H11.3917ZM8.76322 3.75967L4.62156 5.1305L5.87844 8.9279L10.0201 7.55707L8.76322 3.75967ZM3.25 7.0292V21.9625H7.25V7.0292H3.25Z" fill="#B9BCBE" mask="url(#path-1-inside-1_733_1664)"/>
</svg>
