<svg width="24" height="24" viewBox="0 0 24 24" fill="none" xmlns="http://www.w3.org/2000/svg">
<path fill-rule="evenodd" clip-rule="evenodd" d="M11.777 13.4647C11.108 13.4647 10.441 13.2437 9.88298 12.8017L5.39798 9.18574C5.07498 8.92574 5.02498 8.45274 5.28398 8.13074C5.54498 7.80974 6.01698 7.75874 6.33898 8.01774L10.82 11.6297C11.383 12.0757 12.176 12.0757 12.743 11.6257L17.179 8.01974C17.501 7.75674 17.973 7.80674 18.235 8.12874C18.496 8.44974 18.447 8.92174 18.126 9.18374L13.682 12.7957C13.12 13.2417 12.448 13.4647 11.777 13.4647Z" fill="#070707"/>
<mask id="mask0_1_235" style="mask-type:luminance" maskUnits="userSpaceOnUse" x="1" y="2" width="22" height="20">
<path fill-rule="evenodd" clip-rule="evenodd" d="M1 2H22.4999V21.5H1V2Z" fill="white"/>
</mask>
<g mask="url(#mask0_1_235)">
<path fill-rule="evenodd" clip-rule="evenodd" d="M6.83888 20H16.6589C16.6609 19.998 16.6689 20 16.6749 20C17.8159 20 18.8279 19.592 19.6039 18.817C20.5049 17.92 20.9999 16.631 20.9999 15.188V8.32C20.9999 5.527 19.1739 3.5 16.6589 3.5H6.84088C4.32588 3.5 2.49988 5.527 2.49988 8.32V15.188C2.49988 16.631 2.99588 17.92 3.89588 18.817C4.67188 19.592 5.68488 20 6.82488 20H6.83888ZM6.82188 21.5C5.27888 21.5 3.90088 20.94 2.83688 19.88C1.65188 18.698 0.999878 17.032 0.999878 15.188V8.32C0.999878 4.717 3.51088 2 6.84088 2H16.6589C19.9889 2 22.4999 4.717 22.4999 8.32V15.188C22.4999 17.032 21.8479 18.698 20.6629 19.88C19.5999 20.939 18.2209 21.5 16.6749 21.5H16.6589H6.84088H6.82188Z" fill="#070707"/>
</g>
</svg>
