<svg width="23" height="22" viewBox="0 0 23 22" fill="none" xmlns="http://www.w3.org/2000/svg">
<path d="M11.5 21.0625C11.2994 21.0625 11.0952 21.0262 10.8874 20.9536C10.6796 20.8811 10.497 20.765 10.3393 20.6054L8.85625 19.2343C6.53125 17.0781 4.51562 15.0203 2.80938 13.0609C1.10313 11.1015 0.25 9.05308 0.25 6.91558C0.25 5.22517 0.817187 3.81351 1.95156 2.6806C3.08594 1.54767 4.4875 0.981201 6.15625 0.981201C7.1125 0.981201 8.05937 1.21089 8.99687 1.67026C9.93437 2.12964 10.7688 2.88433 11.5 3.93433C12.325 2.88433 13.1781 2.12964 14.0594 1.67026C14.9406 1.21089 15.8687 0.981201 16.8438 0.981201C18.5125 0.981201 19.9141 1.54767 21.0484 2.6806C22.1828 3.81351 22.75 5.22517 22.75 6.91558C22.75 9.05308 21.8969 11.1015 20.1906 13.0609C18.4844 15.0203 16.4688 17.0781 14.1437 19.2343L12.6531 20.6125C12.4984 20.7696 12.3191 20.8839 12.1152 20.9553C11.9113 21.0267 11.7063 21.0625 11.5 21.0625Z" fill="black"/>
</svg>
