<svg width="16" height="16" viewBox="0 0 16 16" fill="none" xmlns="http://www.w3.org/2000/svg">
<g id="bookmark_FILL0_wght400_GRAD0_opsz48 1">
<path id="Vector" d="M8.00016 11.9998L4.7335 13.3998C4.40016 13.5443 4.0835 13.5179 3.7835 13.3206C3.4835 13.1233 3.3335 12.8442 3.3335 12.4832V2.9165C3.3335 2.64984 3.4335 2.4165 3.6335 2.2165C3.8335 2.0165 4.06683 1.9165 4.3335 1.9165H11.6668C11.9335 1.9165 12.1668 2.0165 12.3668 2.2165C12.5668 2.4165 12.6668 2.64984 12.6668 2.9165V12.4832C12.6668 12.8442 12.5168 13.1233 12.2168 13.3206C11.9168 13.5179 11.6002 13.5443 11.2668 13.3998L8.00016 11.9998ZM8.00016 10.9332L11.6668 12.4832V2.9165H4.3335V12.4832L8.00016 10.9332ZM8.00016 2.9165H4.3335H11.6668H8.00016Z" fill="#AAAAAA"/>
</g>
</svg>
