<svg width="23" height="22" viewBox="0 0 23 22" fill="none" xmlns="http://www.w3.org/2000/svg">
<path d="M11.5 21.0625C11.2994 21.0625 11.0952 21.0262 10.8874 20.9536C10.6796 20.8811 10.4969 20.765 10.3393 20.6054L8.85625 19.2343C6.53125 17.0781 4.51562 15.0203 2.80938 13.0609C1.10312 11.1015 0.25 9.05308 0.25 6.91558C0.25 5.22517 0.817188 3.81351 1.95156 2.6806C3.08594 1.54767 4.4875 0.981201 6.15625 0.981201C7.1125 0.981201 8.05937 1.21089 8.99687 1.67026C9.93437 2.12964 10.7688 2.88433 11.5 3.93433C12.325 2.88433 13.1781 2.12964 14.0594 1.67026C14.9406 1.21089 15.8687 0.981201 16.8438 0.981201C18.5125 0.981201 19.9141 1.54767 21.0484 2.6806C22.1828 3.81351 22.75 5.22517 22.75 6.91558C22.75 9.05308 21.8969 11.1015 20.1906 13.0609C18.4844 15.0203 16.4688 17.0781 14.1437 19.2343L12.6531 20.6125C12.4984 20.7696 12.3191 20.8839 12.1152 20.9553C11.9113 21.0267 11.7062 21.0625 11.5 21.0625ZM10.7688 5.79058C10.2625 4.87183 9.59688 4.12183 8.77187 3.54058C7.94687 2.95933 7.075 2.6687 6.15625 2.6687C4.91875 2.6687 3.90625 3.06714 3.11875 3.86401C2.33125 4.66089 1.9375 5.6821 1.9375 6.92764C1.9375 8.0071 2.30201 9.14358 3.03103 10.3371C3.76007 11.5306 4.63194 12.6884 5.64665 13.8105C6.66138 14.9326 7.7125 15.9765 8.8 16.9421C9.8875 17.9078 10.7875 18.7187 11.5 19.375C12.2125 18.7375 13.1125 17.9312 14.2 16.9562C15.2875 15.9812 16.3375 14.9265 17.35 13.7921C18.3625 12.6578 19.2344 11.4935 19.9656 10.2992C20.6969 9.10499 21.0625 7.97711 21.0625 6.91558C21.0625 5.67808 20.6641 4.66089 19.8672 3.86401C19.0703 3.06714 18.0625 2.6687 16.8438 2.6687C15.9062 2.6687 15.0297 2.95464 14.2141 3.52651C13.3984 4.09839 12.7188 4.85308 12.175 5.79058C12.0812 5.94058 11.9781 6.04839 11.8656 6.11401C11.7531 6.17964 11.6219 6.21245 11.4719 6.21245C11.3219 6.21245 11.1859 6.17964 11.0641 6.11401C10.9422 6.04839 10.8438 5.94058 10.7688 5.79058Z" fill="black"/>
</svg>
