<svg width="20" height="20" viewBox="0 0 20 20" fill="none" xmlns="http://www.w3.org/2000/svg">
<circle cx="10" cy="10" r="10" fill="#A069FA"/>
<path d="M10 15.25C8.53194 15.25 7.28993 15.024 6.27396 14.5719C5.25799 14.1198 4.75 13.5681 4.75 12.9167V7.08333C4.75 6.44167 5.26285 5.89236 6.28854 5.43542C7.31424 4.97847 8.55139 4.75 10 4.75C11.4486 4.75 12.6858 4.97847 13.7115 5.43542C14.7372 5.89236 15.25 6.44167 15.25 7.08333V12.9167C15.25 13.5681 14.742 14.1198 13.726 14.5719C12.7101 15.024 11.4681 15.25 10 15.25ZM10 8.13333C10.8361 8.13333 11.6941 8.00451 12.574 7.74688C13.4538 7.48924 14.0201 7.2 14.2729 6.87917C14.0104 6.56806 13.4392 6.28125 12.5594 6.01875C11.6795 5.75625 10.8264 5.625 10 5.625C9.14444 5.625 8.28403 5.75139 7.41875 6.00417C6.55347 6.25694 5.98472 6.54861 5.7125 6.87917C5.98472 7.21944 6.54861 7.51354 7.40417 7.76146C8.25972 8.00938 9.125 8.13333 10 8.13333ZM9.98542 11.2542C10.3938 11.2542 10.8021 11.2323 11.2104 11.1885C11.6188 11.1448 12.0101 11.0792 12.3844 10.9917C12.7587 10.9042 13.116 10.7972 13.4563 10.6708C13.7965 10.5444 14.1028 10.4035 14.375 10.2479V7.9875C14.0931 8.14306 13.7819 8.28403 13.4417 8.41042C13.1014 8.53681 12.7417 8.64375 12.3625 8.73125C11.9833 8.81875 11.5944 8.88681 11.1958 8.93542C10.7972 8.98403 10.3938 9.00833 9.98542 9.00833C9.57708 9.00833 9.16875 8.98403 8.76042 8.93542C8.35208 8.88681 7.96076 8.81875 7.58646 8.73125C7.21215 8.64375 6.85729 8.53681 6.52188 8.41042C6.18646 8.28403 5.8875 8.14306 5.625 7.9875V10.2479C5.8875 10.4035 6.18403 10.5444 6.51458 10.6708C6.84514 10.7972 7.19757 10.9042 7.57188 10.9917C7.94618 11.0792 8.3375 11.1448 8.74583 11.1885C9.15417 11.2323 9.56736 11.2542 9.98542 11.2542ZM10 14.375C10.4667 14.375 10.9479 14.3337 11.4437 14.251C11.9396 14.1684 12.3941 14.059 12.8073 13.9229C13.2205 13.7868 13.5705 13.6361 13.8573 13.4708C14.1441 13.3056 14.3167 13.1354 14.375 12.9604V11.1375C14.1028 11.2931 13.7965 11.4316 13.4563 11.5531C13.116 11.6747 12.7587 11.7792 12.3844 11.8667C12.0101 11.9542 11.6212 12.0198 11.2177 12.0635C10.8142 12.1073 10.4035 12.1292 9.98542 12.1292C9.56736 12.1292 9.15417 12.1073 8.74583 12.0635C8.3375 12.0198 7.94618 11.9542 7.57188 11.8667C7.19757 11.7792 6.84514 11.6747 6.51458 11.5531C6.18403 11.4316 5.8875 11.2931 5.625 11.1375V12.975C5.67361 13.1403 5.83889 13.308 6.12083 13.4781C6.40278 13.6483 6.75278 13.799 7.17083 13.9302C7.58889 14.0615 8.04583 14.1684 8.54167 14.251C9.0375 14.3337 9.52361 14.375 10 14.375Z" fill="white"/>
</svg>
