<svg width="46" height="46" viewBox="0 0 46 46" fill="none" xmlns="http://www.w3.org/2000/svg">
<g filter="url(#filter0_d_853_989)">
<circle cx="23" cy="21" r="19" fill="white"/>
</g>
<path d="M22.1429 21.8571H15.8571C15.6143 21.8571 15.4107 21.7745 15.2464 21.6093C15.0821 21.444 15 21.2393 15 20.995C15 20.7507 15.0821 20.5476 15.2464 20.3857C15.4107 20.2238 15.6143 20.1429 15.8571 20.1429H22.1429V13.8571C22.1429 13.6143 22.2255 13.4107 22.3907 13.2464C22.556 13.0821 22.7607 13 23.005 13C23.2493 13 23.4524 13.0821 23.6143 13.2464C23.7762 13.4107 23.8571 13.6143 23.8571 13.8571V20.1429H30.1429C30.3857 20.1429 30.5893 20.2255 30.7536 20.3907C30.9179 20.556 31 20.7607 31 21.005C31 21.2493 30.9179 21.4524 30.7536 21.6143C30.5893 21.7762 30.3857 21.8571 30.1429 21.8571H23.8571V28.1429C23.8571 28.3857 23.7745 28.5893 23.6093 28.7536C23.444 28.9179 23.2393 29 22.995 29C22.7507 29 22.5476 28.9179 22.3857 28.7536C22.2238 28.5893 22.1429 28.3857 22.1429 28.1429V21.8571Z" fill="#737373"/>
<defs>
<filter id="filter0_d_853_989" x="0" y="0" width="46" height="46" filterUnits="userSpaceOnUse" color-interpolation-filters="sRGB">
<feFlood flood-opacity="0" result="BackgroundImageFix"/>
<feColorMatrix in="SourceAlpha" type="matrix" values="0 0 0 0 0 0 0 0 0 0 0 0 0 0 0 0 0 0 127 0" result="hardAlpha"/>
<feOffset dy="2"/>
<feGaussianBlur stdDeviation="2"/>
<feComposite in2="hardAlpha" operator="out"/>
<feColorMatrix type="matrix" values="0 0 0 0 0 0 0 0 0 0 0 0 0 0 0 0 0 0 0.25 0"/>
<feBlend mode="normal" in2="BackgroundImageFix" result="effect1_dropShadow_853_989"/>
<feBlend mode="normal" in="SourceGraphic" in2="effect1_dropShadow_853_989" result="shape"/>
</filter>
</defs>
</svg>
