<svg width="19" height="23" viewBox="0 0 19 23" fill="none" xmlns="http://www.w3.org/2000/svg">
<path fill-rule="evenodd" clip-rule="evenodd" d="M14.6811 9.31513C14.2108 9.31513 13.8291 8.93343 13.8291 8.46311V6.02407C13.8291 3.64296 11.8922 1.70604 9.51105 1.70604H9.49288C8.34208 1.70604 7.264 2.14909 6.44947 2.95681C5.62926 3.76793 5.17599 4.85056 5.17144 6.00476V8.46311C5.17144 8.93343 4.78974 9.31513 4.31943 9.31513C3.84911 9.31513 3.46741 8.93343 3.46741 8.46311V6.02407C3.47422 4.3882 4.10699 2.87842 5.24869 1.74694C6.39153 0.614324 7.90017 -0.0411618 9.51446 0.00200709C12.8317 0.00200709 15.5331 2.70347 15.5331 6.02407V8.46311C15.5331 8.93343 15.1514 9.31513 14.6811 9.31513Z" fill="#070707"/>
<path fill-rule="evenodd" clip-rule="evenodd" d="M5.16002 9.23487C3.25377 9.23487 1.70424 10.7844 1.70424 12.6907V17.5631C1.70424 19.4693 3.25377 21.0188 5.16002 21.0188H13.8404C15.7455 21.0188 17.2962 19.4693 17.2962 17.5631V12.6907C17.2962 10.7844 15.7455 9.23487 13.8404 9.23487H5.16002ZM13.8402 22.7226H5.15982C2.31408 22.7226 0 20.4085 0 17.5627V12.6903C0 9.8446 2.31408 7.53052 5.15982 7.53052H13.8402C16.6859 7.53052 19 9.8446 19 12.6903V17.5627C19 20.4085 16.6859 22.7226 13.8402 22.7226Z" fill="#070707"/>
<path fill-rule="evenodd" clip-rule="evenodd" d="M9.49899 17.2398C9.02868 17.2398 8.64697 16.8581 8.64697 16.3878V13.8647C8.64697 13.3944 9.02868 13.0127 9.49899 13.0127C9.9693 13.0127 10.351 13.3944 10.351 13.8647V16.3878C10.351 16.8581 9.9693 17.2398 9.49899 17.2398Z" fill="#070707"/>
</svg>
