<svg width="20" height="20" viewBox="0 0 20 20" fill="none" xmlns="http://www.w3.org/2000/svg">
<circle cx="10" cy="10" r="10" fill="#FA6994"/>
<path d="M4.4375 14.0563C4.31111 14.0563 4.2066 14.0149 4.12396 13.9323C4.04132 13.8497 4 13.7451 4 13.6188V12.6854C4 12.3451 4.0875 12.0365 4.2625 11.7594C4.4375 11.4823 4.68056 11.2757 4.99167 11.1396C5.70139 10.8285 6.34063 10.6049 6.90937 10.4688C7.47813 10.3326 8.06389 10.2646 8.66667 10.2646C9.26944 10.2646 9.85278 10.3326 10.4167 10.4688C10.9806 10.6049 11.6174 10.8285 12.3271 11.1396C12.6382 11.2757 12.8837 11.4823 13.0635 11.7594C13.2434 12.0365 13.3333 12.3451 13.3333 12.6854V13.6188C13.3333 13.7451 13.292 13.8497 13.2094 13.9323C13.1267 14.0149 13.0222 14.0563 12.8958 14.0563H4.4375ZM13.8875 14.0563C13.9847 14.0368 14.0625 13.9858 14.1208 13.9031C14.1792 13.8205 14.2083 13.716 14.2083 13.5896V12.6854C14.2083 12.0729 14.0528 11.5698 13.7417 11.176C13.4306 10.7823 13.0222 10.4639 12.5167 10.2208C13.1875 10.2986 13.8194 10.4128 14.4125 10.5635C15.0056 10.7142 15.4868 10.8868 15.8562 11.0813C16.1771 11.266 16.4299 11.4944 16.6146 11.7667C16.7993 12.0389 16.8917 12.3451 16.8917 12.6854V13.6188C16.8917 13.7451 16.8503 13.8497 16.7677 13.9323C16.6851 14.0149 16.5806 14.0563 16.4542 14.0563H13.8875ZM8.66667 9.375C8.025 9.375 7.5 9.17083 7.09167 8.7625C6.68333 8.35417 6.47917 7.82917 6.47917 7.1875C6.47917 6.54583 6.68333 6.02083 7.09167 5.6125C7.5 5.20417 8.025 5 8.66667 5C9.30833 5 9.83333 5.20417 10.2417 5.6125C10.65 6.02083 10.8542 6.54583 10.8542 7.1875C10.8542 7.82917 10.65 8.35417 10.2417 8.7625C9.83333 9.17083 9.30833 9.375 8.66667 9.375ZM13.9167 7.1875C13.9167 7.82917 13.7125 8.35417 13.3042 8.7625C12.8958 9.17083 12.3708 9.375 11.7292 9.375C11.6222 9.375 11.5031 9.36771 11.3719 9.35313C11.2406 9.33854 11.1215 9.31181 11.0146 9.27292C11.2479 9.02986 11.4253 8.7309 11.5469 8.37604C11.6684 8.02118 11.7292 7.625 11.7292 7.1875C11.7292 6.75 11.6684 6.36354 11.5469 6.02813C11.4253 5.69271 11.2479 5.38403 11.0146 5.10208C11.1215 5.07292 11.2406 5.04861 11.3719 5.02917C11.5031 5.00972 11.6222 5 11.7292 5C12.3708 5 12.8958 5.20417 13.3042 5.6125C13.7125 6.02083 13.9167 6.54583 13.9167 7.1875ZM4.875 13.1813H12.4583V12.6854C12.4583 12.5299 12.4122 12.3792 12.3198 12.2333C12.2274 12.0875 12.1132 11.9854 11.9771 11.9271C11.2771 11.616 10.6889 11.4069 10.2125 11.3C9.73611 11.1931 9.22083 11.1396 8.66667 11.1396C8.1125 11.1396 7.59479 11.1931 7.11354 11.3C6.63229 11.4069 6.04167 11.616 5.34167 11.9271C5.20556 11.9854 5.09375 12.0875 5.00625 12.2333C4.91875 12.3792 4.875 12.5299 4.875 12.6854V13.1813ZM8.66667 8.5C9.04583 8.5 9.35938 8.37604 9.60729 8.12813C9.85521 7.88021 9.97917 7.56667 9.97917 7.1875C9.97917 6.80833 9.85521 6.49479 9.60729 6.24688C9.35938 5.99896 9.04583 5.875 8.66667 5.875C8.2875 5.875 7.97396 5.99896 7.72604 6.24688C7.47813 6.49479 7.35417 6.80833 7.35417 7.1875C7.35417 7.56667 7.47813 7.88021 7.72604 8.12813C7.97396 8.37604 8.2875 8.5 8.66667 8.5Z" fill="white"/>
</svg>
