<svg width="24" height="24" viewBox="0 0 24 24" fill="none" xmlns="http://www.w3.org/2000/svg">
<path d="M2.825 12.0001L10.7 19.8751C10.8833 20.0584 10.975 20.2876 10.975 20.5626C10.975 20.8376 10.8833 21.0751 10.7 21.2751C10.5 21.4751 10.2625 21.5751 9.9875 21.5751C9.7125 21.5751 9.475 21.4751 9.275 21.2751L1.05 13.0501C0.9 12.9001 0.791667 12.7334 0.725 12.5501C0.658333 12.3668 0.625 12.1834 0.625 12.0001C0.625 11.8168 0.658333 11.6334 0.725 11.4501C0.791667 11.2668 0.9 11.1001 1.05 10.9501L9.3 2.70011C9.5 2.50011 9.73333 2.40428 10 2.41261C10.2667 2.42094 10.5 2.52511 10.7 2.72511C10.8833 2.92511 10.9792 3.15844 10.9875 3.42511C10.9958 3.69178 10.9 3.92511 10.7 4.12511L2.825 12.0001Z" fill="#070707"/>
</svg>
