<svg width="28" height="28" viewBox="0 0 28 28" fill="none" xmlns="http://www.w3.org/2000/svg">
<mask id="path-1-inside-1_733_1661" fill="white">
<path d="M13.9998 13.9707C12.7165 13.9707 11.6665 13.5624 10.8498 12.7457C10.0332 11.929 9.62484 10.879 9.62484 9.5957C9.62484 8.31237 10.0332 7.26237 10.8498 6.4457C11.6665 5.62904 12.7165 5.2207 13.9998 5.2207C15.2832 5.2207 16.3332 5.62904 17.1498 6.4457C17.9665 7.26237 18.3748 8.31237 18.3748 9.5957C18.3748 10.879 17.9665 11.929 17.1498 12.7457C16.3332 13.5624 15.2832 13.9707 13.9998 13.9707ZM21.5832 23.3332H6.4165C5.93525 23.3332 5.52327 23.1618 5.18057 22.8191C4.83786 22.4764 4.6665 22.0645 4.6665 21.5832V20.5915C4.6665 19.8526 4.85123 19.2207 5.22067 18.6957C5.59011 18.1707 6.0665 17.7721 6.64984 17.4999C7.95261 16.9165 9.20192 16.479 10.3978 16.1874C11.5936 15.8957 12.7943 15.7499 13.9998 15.7499C15.2054 15.7499 16.4012 15.9006 17.5873 16.202C18.7734 16.5033 20.0171 16.9379 21.3184 17.5055C21.927 17.7802 22.415 18.1785 22.7822 18.7004C23.1495 19.2223 23.3332 19.8526 23.3332 20.5915V21.5832C23.3332 22.0645 23.1618 22.4764 22.8191 22.8191C22.4764 23.1618 22.0644 23.3332 21.5832 23.3332ZM6.4165 21.5832H21.5832V20.5915C21.5832 20.2804 21.4908 19.9839 21.3061 19.702C21.1214 19.42 20.8929 19.211 20.6207 19.0749C19.3762 18.4721 18.2387 18.0589 17.2082 17.8353C16.1776 17.6117 15.1082 17.4999 13.9998 17.4999C12.8915 17.4999 11.8123 17.6117 10.7623 17.8353C9.71234 18.0589 8.57484 18.4721 7.34984 19.0749C7.07761 19.211 6.854 19.42 6.679 19.702C6.504 19.9839 6.4165 20.2804 6.4165 20.5915V21.5832ZM13.9998 12.2207C14.7582 12.2207 15.3853 11.9728 15.8811 11.477C16.3769 10.9811 16.6248 10.354 16.6248 9.5957C16.6248 8.83737 16.3769 8.21029 15.8811 7.71445C15.3853 7.21862 14.7582 6.9707 13.9998 6.9707C13.2415 6.9707 12.6144 7.21862 12.1186 7.71445C11.6228 8.21029 11.3748 8.83737 11.3748 9.5957C11.3748 10.354 11.6228 10.9811 12.1186 11.477C12.6144 11.9728 13.2415 12.2207 13.9998 12.2207Z"/>
</mask>
<path d="M6.64984 17.4999L5.83251 15.6745L5.81824 15.6809L5.80407 15.6875L6.64984 17.4999ZM21.3184 17.5055L22.1411 15.6826L22.1296 15.6774L22.1181 15.6724L21.3184 17.5055ZM6.4165 21.5832H4.4165V23.5832H6.4165V21.5832ZM21.5832 21.5832V23.5832H23.5832V21.5832H21.5832ZM20.6207 19.0749L21.5151 17.286L21.5038 17.2804L21.4925 17.2749L20.6207 19.0749ZM7.34984 19.0749L6.4668 17.2803L6.45541 17.286L7.34984 19.0749ZM13.9998 11.9707C13.1823 11.9707 12.6623 11.7298 12.2641 11.3315L9.43562 14.1599C10.6707 15.395 12.2507 15.9707 13.9998 15.9707V11.9707ZM12.2641 11.3315C11.8658 10.9332 11.6248 10.4132 11.6248 9.5957H7.62484C7.62484 11.3449 8.20055 12.9248 9.43562 14.1599L12.2641 11.3315ZM11.6248 9.5957C11.6248 8.77821 11.8658 8.25818 12.2641 7.85992L9.43562 5.03149C8.20055 6.26656 7.62484 7.84653 7.62484 9.5957H11.6248ZM12.2641 7.85992C12.6623 7.46166 13.1823 7.2207 13.9998 7.2207V3.2207C12.2507 3.2207 10.6707 3.79642 9.43562 5.03149L12.2641 7.85992ZM13.9998 7.2207C14.8173 7.2207 15.3374 7.46166 15.7356 7.85992L18.5641 5.03149C17.329 3.79642 15.749 3.2207 13.9998 3.2207V7.2207ZM15.7356 7.85992C16.1339 8.25818 16.3748 8.7782 16.3748 9.5957H20.3748C20.3748 7.84654 19.7991 6.26656 18.5641 5.03149L15.7356 7.85992ZM16.3748 9.5957C16.3748 10.4132 16.1339 10.9332 15.7356 11.3315L18.5641 14.1599C19.7991 12.9248 20.3748 11.3449 20.3748 9.5957H16.3748ZM15.7356 11.3315C15.3374 11.7298 14.8173 11.9707 13.9998 11.9707V15.9707C15.749 15.9707 17.329 15.395 18.5641 14.1599L15.7356 11.3315ZM21.5832 21.3332H6.4165V25.3332H21.5832V21.3332ZM6.4165 21.3332C6.41533 21.3332 6.42585 21.3331 6.44536 21.3369C6.46522 21.3407 6.48918 21.3475 6.51465 21.3581C6.57039 21.3812 6.59718 21.4073 6.59478 21.4049L3.76635 24.2334C4.48114 24.9481 5.4006 25.3332 6.4165 25.3332V21.3332ZM6.59478 21.4049C6.59238 21.4025 6.61847 21.4293 6.64166 21.4851C6.65225 21.5105 6.65901 21.5345 6.66282 21.5543C6.66656 21.5739 6.6665 21.5844 6.6665 21.5832H2.6665C2.6665 22.5991 3.05156 23.5186 3.76635 24.2334L6.59478 21.4049ZM6.6665 21.5832V20.5915H2.6665V21.5832H6.6665ZM6.6665 20.5915C6.6665 20.2004 6.75847 19.9857 6.85628 19.8467L3.58506 17.5447C2.94398 18.4557 2.6665 19.5049 2.6665 20.5915H6.6665ZM6.85628 19.8467C7.02414 19.6082 7.22788 19.4372 7.49561 19.3122L5.80407 15.6875C4.90513 16.107 4.15609 16.7332 3.58506 17.5447L6.85628 19.8467ZM7.46717 19.3252C8.67635 18.7838 9.81051 18.3892 10.8717 18.1304L9.92384 14.2443C8.59333 14.5688 7.22888 15.0493 5.83251 15.6745L7.46717 19.3252ZM10.8717 18.1304C11.9156 17.8758 12.9573 17.7499 13.9998 17.7499V13.7499C12.6313 13.7499 11.2715 13.9156 9.92384 14.2443L10.8717 18.1304ZM13.9998 17.7499C15.0368 17.7499 16.0672 17.8792 17.0948 18.1404L18.0799 14.2636C16.7352 13.9219 15.374 13.7499 13.9998 13.7499V17.7499ZM17.0948 18.1404C18.1608 18.4112 19.3014 18.8077 20.5187 19.3387L22.1181 15.6724C20.7328 15.0681 19.3861 14.5955 18.0799 14.2636L17.0948 18.1404ZM20.4957 19.3285C20.7939 19.4631 20.9951 19.636 21.1467 19.8514L24.4178 17.5493C23.8348 16.7209 23.0601 16.0973 22.1411 15.6826L20.4957 19.3285ZM21.1467 19.8514C21.2409 19.9853 21.3332 20.1976 21.3332 20.5915H25.3332C25.3332 19.5077 25.0582 18.4592 24.4178 17.5493L21.1467 19.8514ZM21.3332 20.5915V21.5832H25.3332V20.5915H21.3332ZM21.3332 21.5832C21.3332 21.5844 21.3331 21.5739 21.3369 21.5543C21.3407 21.5345 21.3474 21.5105 21.358 21.4851C21.3812 21.4293 21.4073 21.4025 21.4049 21.4049L24.2333 24.2334C24.9481 23.5186 25.3332 22.5991 25.3332 21.5832H21.3332ZM21.4049 21.4049C21.4025 21.4073 21.4293 21.3812 21.485 21.3581C21.5105 21.3475 21.5345 21.3407 21.5543 21.3369C21.5738 21.3331 21.5843 21.3332 21.5832 21.3332V25.3332C22.5991 25.3332 23.5185 24.9481 24.2333 24.2334L21.4049 21.4049ZM6.4165 23.5832H21.5832V19.5832H6.4165V23.5832ZM23.5832 21.5832V20.5915H19.5832V21.5832H23.5832ZM23.5832 20.5915C23.5832 19.8584 23.3585 19.1852 22.979 18.6059L19.6332 20.798C19.6324 20.7968 19.6179 20.774 19.6044 20.7306C19.5905 20.6859 19.5832 20.6373 19.5832 20.5915H23.5832ZM22.979 18.6059C22.6219 18.0609 22.1366 17.5968 21.5151 17.286L19.7262 20.8637C19.6938 20.8475 19.6662 20.8276 19.6462 20.8093C19.627 20.7918 19.6242 20.7843 19.6332 20.798L22.979 18.6059ZM21.4925 17.2749C20.1469 16.6231 18.857 16.1465 17.6323 15.8808L16.7841 19.7898C17.6205 19.9713 18.6055 20.3211 19.7488 20.8748L21.4925 17.2749ZM17.6323 15.8808C16.4555 15.6254 15.2435 15.4999 13.9998 15.4999V19.4999C14.9728 19.4999 15.8998 19.5979 16.7841 19.7898L17.6323 15.8808ZM13.9998 15.4999C12.756 15.4999 11.5371 15.6254 10.3458 15.8792L11.1789 19.7914C12.0876 19.5979 13.027 19.4999 13.9998 19.4999V15.4999ZM10.3458 15.8792C9.09744 16.145 7.80202 16.6234 6.46682 17.2804L8.23285 20.8694C9.34765 20.3208 10.3272 19.9728 11.1789 19.7914L10.3458 15.8792ZM6.45541 17.286C5.82249 17.6025 5.33165 18.0802 4.97972 18.6472L8.37828 20.7567C8.38072 20.7528 8.37079 20.7695 8.34373 20.7948C8.31582 20.8209 8.28121 20.8453 8.24426 20.8637L6.45541 17.286ZM4.97972 18.6472C4.62182 19.2239 4.4165 19.8826 4.4165 20.5915H8.4165C8.4165 20.6264 8.41119 20.6652 8.40036 20.7018C8.39528 20.7191 8.38988 20.7328 8.38542 20.7426C8.38099 20.7524 8.37806 20.757 8.37828 20.7567L4.97972 18.6472ZM4.4165 20.5915V21.5832H8.4165V20.5915H4.4165ZM13.9998 14.2207C15.2409 14.2207 16.392 13.7945 17.2953 12.8912L14.4669 10.0627C14.3785 10.1511 14.2754 10.2207 13.9998 10.2207V14.2207ZM17.2953 12.8912C18.1986 11.9878 18.6248 10.8368 18.6248 9.5957H14.6248C14.6248 9.8713 14.5552 9.97441 14.4669 10.0627L17.2953 12.8912ZM18.6248 9.5957C18.6248 8.35463 18.1986 7.20358 17.2953 6.30024L14.4669 9.12867C14.5552 9.217 14.6248 9.32011 14.6248 9.5957H18.6248ZM17.2953 6.30024C16.392 5.3969 15.2409 4.9707 13.9998 4.9707V8.9707C14.2754 8.9707 14.3785 9.04034 14.4669 9.12867L17.2953 6.30024ZM13.9998 4.9707C12.7588 4.9707 11.6077 5.3969 10.7044 6.30024L13.5328 9.12867C13.6211 9.04034 13.7242 8.9707 13.9998 8.9707V4.9707ZM10.7044 6.30024C9.80103 7.20358 9.37484 8.35464 9.37484 9.5957H13.3748C13.3748 9.32011 13.4445 9.21699 13.5328 9.12867L10.7044 6.30024ZM9.37484 9.5957C9.37484 10.8368 9.80103 11.9878 10.7044 12.8912L13.5328 10.0627C13.4445 9.97441 13.3748 9.8713 13.3748 9.5957H9.37484ZM10.7044 12.8912C11.6077 13.7945 12.7588 14.2207 13.9998 14.2207V10.2207C13.7242 10.2207 13.6211 10.1511 13.5328 10.0627L10.7044 12.8912Z" fill="#FF7042" mask="url(#path-1-inside-1_733_1661)"/>
</svg>
